<svg width="70" height="108" viewBox="0 0 70 108" fill="none" xmlns="http://www.w3.org/2000/svg">
<path d="M59.4287 96.032C59.3763 91.4853 59.1528 86.941 58.6921 82.4171C58.4766 80.303 58.2646 78.1659 57.7971 76.0906C57.3695 74.1955 56.6751 72.3232 55.4756 70.7772C54.4049 69.3966 52.9454 68.2637 51.2499 67.7811C50.8429 67.6658 50.4233 67.5928 50.0026 67.5574C49.64 67.5266 49.2774 67.5369 48.9171 67.473C48.2318 67.3521 47.583 67.1033 46.9878 66.7439C44.7861 65.4159 43.3334 62.6685 43.6994 60.0888C43.7405 60.066 43.7759 60.0318 43.8009 59.9816C43.9252 59.734 43.9241 59.4442 43.9138 59.1612C43.9731 58.9798 44.0392 58.8007 44.119 58.6273C44.2217 58.4025 44.0997 58.1914 43.9286 58.1036C43.9298 58.0488 43.9309 57.994 43.9286 57.9393C43.9229 57.8457 43.8842 57.7784 43.8272 57.7202C43.9093 57.5479 43.8625 57.3346 43.6721 57.1885C43.2969 56.9022 42.6539 56.9352 42.2001 56.8828C41.679 56.8234 41.1568 56.7698 40.6334 56.7219C39.6289 56.6306 38.6209 56.5679 37.613 56.5256C35.5811 56.4401 33.5299 56.4195 31.4991 56.5519C30.3293 56.6272 29.1617 56.7367 27.9964 56.8736C27.7752 56.8999 27.6463 57.0653 27.6156 57.2399C27.4422 57.2239 27.2473 57.3323 27.2667 57.5354C27.546 60.5509 27.9154 64.5123 25.2052 66.6025C23.8677 67.6339 22.1459 67.9773 20.5759 68.4953C18.9237 69.0395 17.4323 69.8256 16.169 71.0373C13.4701 73.6261 12.2318 77.2977 11.7438 80.9236C11.4621 83.0184 11.3914 85.1314 11.3185 87.2411C11.2421 89.459 11.1531 91.6759 11.0528 93.8927C10.8498 98.3276 10.5979 102.761 10.2957 107.19C10.2809 107.41 10.2649 107.629 10.249 107.848H11.3105H19.9476H21.0913H49.7084H50.8372H58.0662H59.2269C59.2508 107.295 59.2725 106.742 59.293 106.19C59.3341 105.068 59.3683 103.947 59.3922 102.825C59.4378 100.562 59.4538 98.2968 59.4287 96.032Z" fill="#29A0D7"/>
<path d="M26.1368 72.0476C26.6111 71.5901 27.0524 71.0801 27.4149 70.529C27.7456 70.0258 27.9896 69.4656 28.2063 68.9043C28.4206 68.3486 28.5985 67.7782 28.749 67.202C29.05 66.0519 29.245 64.8767 29.4263 63.7027C29.5221 63.0775 29.6315 62.4534 29.7068 61.8259C29.782 61.1995 29.8277 60.5708 29.8562 59.941C29.9063 58.8537 29.9029 57.7652 29.9018 56.6768C29.2655 56.7338 28.6304 56.8 27.9953 56.8741C27.7741 56.9004 27.6453 57.0658 27.6145 57.2404C27.4412 57.2244 27.2462 57.3328 27.2656 57.5359C27.5449 60.5514 27.9144 64.5128 25.2041 66.603C24.203 67.3743 22.9875 67.761 21.7811 68.1239C21.7982 68.2391 21.8324 68.3532 21.8735 68.4627C21.9693 68.7149 22.1061 68.9511 22.2384 69.185C22.3729 69.4234 22.496 69.6664 22.6294 69.9049C22.9521 70.4822 23.2828 71.0538 23.6545 71.6015C24.0091 72.124 24.4059 72.6032 24.8461 73.0391C25.2143 72.6386 25.7457 72.4252 26.1368 72.0476Z" fill="#FF5517"/>
<path d="M29.6988 75.727C29.7524 75.6312 29.8117 75.5399 29.8732 75.4498C30.1948 74.9775 30.5574 74.5325 30.8983 74.0738C31.2563 73.5923 31.4342 73.0253 31.5904 72.4537C31.7637 71.8205 31.9199 71.1884 32.0317 70.5415C32.148 69.8717 32.2289 69.1963 32.2928 68.5186C32.4216 67.1449 32.4718 65.7643 32.5414 64.3861C32.6109 62.9827 32.693 61.5805 32.7192 60.1748C32.742 58.9483 32.7249 57.7195 32.644 56.4941C32.262 56.509 31.88 56.5261 31.4992 56.5512C31.0237 56.582 30.5494 56.6196 30.0751 56.6607C30.0773 57.926 30.0808 59.1913 30.0021 60.4544C29.9246 61.7048 29.7216 62.9359 29.5266 64.1716C29.3373 65.3684 29.1218 66.563 28.7832 67.7279C28.4502 68.8711 28.0193 70.036 27.2975 70.9933C27.123 71.2249 26.936 71.4474 26.7422 71.663C26.5529 71.8729 26.3591 72.0909 26.1424 72.2734C25.7719 72.5872 25.3021 72.7971 24.9714 73.1576C25.3488 73.517 25.7559 73.8479 26.1983 74.1434C27.1823 74.8017 28.2769 75.3232 29.4046 75.6848C29.4993 75.7156 29.595 75.743 29.6908 75.7716C29.6885 75.759 29.6908 75.743 29.6988 75.727Z" fill="#FFCA00"/>
<path d="M40.898 75.8731C40.5696 75.2684 40.1899 74.6923 39.8547 74.0921C39.5183 73.4897 39.2356 72.8565 38.9813 72.2164C38.4784 70.9454 38.1181 69.6196 37.8798 68.2733C37.6415 66.9258 37.5218 65.559 37.4887 64.191C37.4716 63.4676 37.4762 62.7431 37.4534 62.0198C37.4306 61.2873 37.4009 60.5537 37.4089 59.8212C37.4158 59.1571 37.4694 58.5 37.5252 57.8382C37.5617 57.4069 37.597 56.9608 37.5628 56.5238C36.8798 56.4953 36.1946 56.4771 35.5082 56.4668C35.499 56.6425 35.4922 56.8194 35.4877 56.9962C35.4728 57.5918 35.4717 58.1885 35.4728 58.7841C35.4751 59.8942 35.4933 61.0043 35.5082 62.1156C35.5184 62.92 35.4535 63.7255 35.409 64.5287C35.3748 65.1517 35.344 65.7746 35.3417 66.3987C35.3394 67.024 35.3816 67.6446 35.4272 68.2676C35.5572 70.0543 35.6439 71.8456 35.6518 73.638C35.6553 74.2861 35.661 74.9364 35.71 75.5822C35.7294 75.8355 35.7522 76.0922 35.8115 76.3398C35.8297 76.4174 35.8514 76.4984 35.8867 76.5646C35.9061 76.5999 35.9073 76.5954 35.9266 76.6205C35.9312 76.625 35.9403 76.6262 35.938 76.6262C36.0019 76.6285 36.027 76.6855 36.0179 76.7334C36.4249 76.7654 36.832 76.7893 37.2402 76.7927C38.5503 76.803 39.8353 76.6102 41.0941 76.2588C41.0314 76.1287 40.9664 75.9998 40.898 75.8731Z" fill="#FFCA00"/>
<path d="M46.9242 73.2148C46.3176 72.6671 45.7019 72.1286 45.0793 71.6004C44.4967 71.1052 43.8752 70.6443 43.3336 70.1035C42.3872 69.1599 41.6963 68.0007 41.2197 66.7582C40.7351 65.494 40.4648 64.1568 40.2756 62.8196C40.1684 62.0621 40.0692 61.3022 39.9859 60.5423C39.8959 59.7174 39.84 58.8823 39.9141 58.0539C39.9529 57.6226 40.0179 57.1902 40.0966 56.7647C40.1023 56.7373 40.1068 56.7087 40.1125 56.6814C39.3201 56.6175 38.5265 56.5684 37.7329 56.5342C37.7739 57.0989 37.7124 57.6717 37.6622 58.233C37.6018 58.9085 37.5755 59.5851 37.5801 60.2639C37.5858 60.9976 37.6189 61.73 37.6382 62.4625C37.6565 63.1756 37.6474 63.8899 37.6736 64.6029C37.7238 65.9664 37.8629 67.3275 38.1274 68.667C38.3942 70.0156 38.7853 71.3414 39.3258 72.6055C39.5994 73.2456 39.9107 73.864 40.2665 74.4619C40.6097 75.0392 40.97 75.6074 41.2641 76.2132C42.5492 75.839 43.7817 75.3153 44.9926 74.7517C45.5685 74.4835 46.1397 74.2154 46.679 73.8788C46.8706 73.7602 47.0564 73.6324 47.2389 73.5012C47.134 73.4053 47.0302 73.3095 46.9242 73.2148Z" fill="#FF5517"/>
<path d="M50.0015 67.5576C49.6389 67.5268 49.2763 67.5371 48.916 67.4732C48.2307 67.3522 47.582 67.1035 46.9868 66.7441C44.785 65.416 43.3324 62.6687 43.6984 60.089C43.7394 60.0662 43.7748 60.0319 43.7999 59.9817C43.9242 59.7341 43.923 59.4443 43.9128 59.1614C43.9721 58.98 44.0382 58.8008 44.118 58.6274C44.2206 58.4027 44.0986 58.1916 43.9276 58.1037C43.9287 58.049 43.931 57.9942 43.9276 57.9394C43.9219 57.8459 43.8831 57.7786 43.8261 57.7204C43.9082 57.5481 43.8614 57.3347 43.671 57.1887C43.2959 56.9023 42.6528 56.9354 42.199 56.8829C41.6779 56.8236 41.1557 56.77 40.6324 56.722C40.5161 56.7118 40.4009 56.7027 40.2846 56.6924C40.2435 56.9012 40.2082 57.11 40.1763 57.3199C40.0976 57.8504 40.0486 58.381 40.052 58.9184C40.0577 59.7353 40.1523 60.5476 40.2561 61.3566C40.3462 62.056 40.4294 62.7565 40.5446 63.4525C40.7578 64.744 41.0679 66.0333 41.6004 67.2347C42.1363 68.4441 42.9048 69.5394 43.9105 70.4031C44.5045 70.9131 45.1157 71.4015 45.7086 71.9126C46.273 72.3998 46.8306 72.8938 47.379 73.3981C47.6492 73.1984 47.9092 72.9862 48.1601 72.7615C48.6093 72.3587 49.0585 71.9251 49.3983 71.4231C49.7187 70.9519 49.957 70.4294 50.1474 69.8931C50.4051 69.1652 50.575 68.4122 50.7358 67.658C50.4941 67.6135 50.2478 67.5781 50.0015 67.5576Z" fill="#FFCA00"/>
<path d="M35.6086 76.1962C35.5607 75.9098 35.539 75.62 35.5219 75.3302C35.4831 74.6685 35.4808 74.0056 35.4797 73.3438C35.4774 72.657 35.4535 71.9713 35.4261 71.2844C35.401 70.6467 35.3691 70.01 35.3304 69.3734C35.2916 68.7356 35.2346 68.1001 35.1981 67.4623C35.0886 65.5786 35.36 63.7029 35.3338 61.8203C35.3167 60.604 35.2996 59.3867 35.303 58.1693C35.3053 57.6193 35.3076 57.0683 35.3338 56.5183C35.3349 56.5001 35.336 56.4818 35.3372 56.4647C34.498 56.4544 33.6577 56.4601 32.8196 56.4887C32.9142 57.9069 32.9177 59.3308 32.88 60.7512C32.8424 62.1569 32.7546 63.5591 32.6873 64.9636C32.6212 66.3499 32.5608 67.7384 32.4057 69.1189C32.2598 70.4253 32.0169 71.7169 31.6212 72.9719C31.5357 73.2435 31.4342 73.5104 31.2997 73.7626C31.1629 74.0193 30.9839 74.2452 30.8105 74.4768C30.4833 74.9127 30.1173 75.3371 29.8494 75.814C29.8482 75.8163 29.8459 75.8174 29.8448 75.8197C30.9782 76.1437 32.1492 76.332 33.3179 76.4712C33.9609 76.5476 34.6041 76.6092 35.2494 76.6697C35.4284 76.6868 35.6063 76.7028 35.7853 76.7176C35.6679 76.5796 35.6371 76.3651 35.6086 76.1962Z" fill="#FF5517"/>
<path d="M35.3155 85.2364C35.295 86.2427 35.2961 87.2501 35.2711 88.2564C35.2585 88.755 35.2471 89.257 35.2061 89.7533C35.1673 90.212 35.1308 90.6695 35.1274 91.1293C35.482 91.2502 35.8697 91.2537 36.2403 91.2434C36.6143 91.2331 36.9882 91.1978 37.3622 91.1921C37.4341 90.6798 37.4375 90.1595 37.4136 89.6449C37.3691 88.6717 37.2163 87.7099 37.1342 86.7401C37.0475 85.7133 37.0099 84.6807 37.0088 83.6504C37.0088 83.6493 37.0088 83.6493 37.0088 83.6481C36.4649 83.6824 35.9198 83.6641 35.3771 83.623C35.3463 84.1604 35.3269 84.699 35.3155 85.2364Z" fill="#FE85F2"/>
<path d="M59.3105 91.3965C58.9638 91.4889 58.6138 91.5745 58.2638 91.6532C57.8852 91.7388 57.5055 91.8175 57.127 91.8985C56.7473 91.9795 56.3687 92.0696 55.9845 92.1335C55.2319 92.2568 54.4703 92.299 53.7086 92.3241C53.3597 92.3355 53.0085 92.3355 52.6608 92.3663C52.3586 92.3925 52.0576 92.4336 51.7554 92.461C51.2708 92.5055 50.6802 92.5545 50.2367 92.3012C50.2367 92.3012 50.2367 92.3024 50.2355 92.3024C50.2184 92.3355 50.207 92.3731 50.1956 92.4188C50.1648 92.5466 50.158 92.6812 50.1534 92.8124C50.1295 93.5494 50.2264 94.2945 50.3108 95.0258C50.3518 95.3841 50.3963 95.7424 50.4362 96.1017C50.459 96.3083 50.4852 96.517 50.4921 96.7258C50.5149 96.7236 50.5377 96.7281 50.5548 96.7407C51.3735 96.8753 52.2047 96.9255 53.0336 96.9209C54.509 96.913 56.0061 96.7669 57.4382 96.4018C58.1007 96.2329 58.7974 96.0128 59.4234 95.6819C59.404 94.2523 59.3652 92.8238 59.3105 91.3965Z" fill="#A601F5"/>
<path d="M12.4998 97.3128C13.7917 97.7042 15.1474 97.8924 16.4951 97.905C17.1622 97.9118 17.8326 97.8765 18.4928 97.7783C19.1359 97.6836 19.7721 97.5422 20.4152 97.4543C20.5452 97.1462 20.6387 96.8302 20.6923 96.4936C20.7573 96.084 20.7881 95.6687 20.8017 95.2546C20.8291 94.4399 20.8029 93.6036 20.6318 92.8038C19.7904 93.0833 18.9033 93.0787 18.0299 92.9761C17.6194 92.9281 17.2112 92.8745 16.7996 92.8414C16.3868 92.8084 15.9729 92.7844 15.5601 92.7524C15.1519 92.7205 14.7438 92.6806 14.3378 92.619C13.9308 92.5573 13.5146 92.4821 13.1269 92.3394C12.7974 92.2185 12.4725 92.085 12.1612 91.9218C11.8659 91.7678 11.5477 91.5944 11.2957 91.3742C11.2513 91.3354 11.2079 91.2966 11.1646 91.2578C11.1281 92.1363 11.0916 93.0149 11.0517 93.8934C11.0095 94.8256 10.9639 95.7566 10.9172 96.6887C11.4246 96.942 11.9559 97.1474 12.4998 97.3128Z" fill="#A601F5"/>
<path d="M14.363 97.9017C14.2935 97.8914 14.2251 97.8823 14.1555 97.8709C13.0393 97.686 11.9264 97.3757 10.907 96.876C10.7896 99.2001 10.6585 101.524 10.5125 103.847C10.6357 103.727 10.7565 103.605 10.874 103.48C11.2525 103.074 11.6026 102.641 11.9298 102.193C12.2365 101.771 12.5068 101.328 12.7861 100.888C13.3505 100.001 14.021 99.1647 14.3847 98.1675C14.3722 98.0785 14.3642 97.9907 14.363 97.9017Z" fill="#FFCA00"/>
<path d="M18.1609 97.9937C16.9568 98.1272 15.7357 98.0975 14.535 97.9286C14.5373 97.9766 14.5396 98.0245 14.5453 98.0713C14.5567 98.0815 14.567 98.0929 14.5727 98.1112C14.7403 98.6874 14.917 99.2601 15.0938 99.8329C15.405 100.84 15.7231 101.847 15.9729 102.871C16.1998 103.801 16.4141 104.742 16.8577 105.596C17.3981 104.862 17.625 103.923 17.8781 103.064C18.1575 102.118 18.5429 101.21 18.9363 100.306C19.1324 99.8557 19.3308 99.413 19.577 98.9863C19.8153 98.5744 20.0685 98.1705 20.2817 97.7449C20.3 97.7096 20.3148 97.6731 20.3307 97.6377C19.6056 97.7449 18.8895 97.9138 18.1609 97.9937Z" fill="#FFCA00"/>
<path d="M51.5501 100.356C51.7074 100.877 51.8454 101.404 52.0027 101.925C52.3163 102.964 52.6937 104.044 53.4006 104.887C53.7108 104.434 53.8499 103.873 53.9707 103.347C54.0255 103.11 54.0722 102.871 54.1292 102.635C54.209 102.307 54.3014 101.981 54.3881 101.654C54.4713 101.338 54.5568 101.023 54.6503 100.709C54.7449 100.394 54.8578 100.087 54.9639 99.7771C55.1212 99.3161 55.3082 98.8654 55.4781 98.4091C55.6024 98.0736 55.7506 97.7177 55.8156 97.3571C55.7734 97.2065 55.7449 97.0422 55.7825 96.8916C55.5773 96.919 55.3732 96.9452 55.1691 96.9669C53.6481 97.1312 52.0882 97.1586 50.5729 96.9156C50.5398 97.5271 50.7279 98.1307 50.9343 98.6989C51.1384 99.2522 51.3802 99.7919 51.5501 100.356Z" fill="#FFCA00"/>
<path d="M59.4286 96.0318C59.4275 95.9759 59.4263 95.9211 59.4263 95.8652C59.3533 95.9029 59.2792 95.9394 59.204 95.9736C58.1869 96.446 57.0797 96.705 55.9692 96.8658C55.968 96.8738 55.9669 96.883 55.9635 96.8909C55.9384 96.9434 55.9349 97.005 55.9384 97.0655C55.9817 97.0655 56.0227 97.0929 56.0182 97.1477C56.0125 97.2138 56.0045 97.2789 55.9931 97.3439C56.0205 97.4386 56.0513 97.5322 56.0866 97.6235C56.2097 97.9361 56.3682 98.235 56.5233 98.5328C56.879 99.2117 57.1823 99.919 57.4936 100.618C57.6875 101.054 57.879 101.492 58.066 101.932C58.2268 102.308 58.3762 102.689 58.5609 103.056C58.806 103.542 59.0808 104.012 59.3454 104.487C59.3613 103.933 59.3762 103.378 59.3876 102.824C59.4377 100.561 59.4537 98.2966 59.4286 96.0318Z" fill="#FFCA00"/>
<path d="M35.0396 91.3651C34.7557 91.3629 34.4718 91.3834 34.1913 91.4313C33.0887 91.6196 32.1047 92.206 31.3339 93.007C30.5369 93.8353 29.9611 94.869 29.5985 95.9563C29.2393 97.0345 29.0762 98.1914 29.1868 99.3255C29.2439 99.9074 29.3727 100.504 29.6099 101.04C29.92 101.74 30.3841 102.392 30.9633 102.894C31.4764 103.339 32.1183 103.627 32.75 103.86C33.4421 104.115 34.1628 104.31 34.8936 104.416C35.4968 104.504 36.1045 104.484 36.7077 104.404C37.3645 104.317 38.0144 104.16 38.637 103.933C39.2481 103.709 39.849 103.411 40.3553 102.997C40.8946 102.556 41.2549 101.97 41.5525 101.345C42.2708 99.8378 42.4465 98.1595 42.2481 96.5142C42.0873 95.1782 41.5799 93.6778 40.4111 92.8951C40.1877 92.7457 39.9619 92.6031 39.7419 92.4479C39.483 92.2654 39.2253 92.0817 38.9597 91.9105C38.6997 91.7439 38.4317 91.5808 38.1444 91.4655C37.9323 91.3811 37.6883 91.3047 37.4603 91.364C37.4569 91.3651 37.4546 91.364 37.4523 91.364C37.4477 91.3651 37.442 91.3663 37.4375 91.3663C37.027 91.3674 36.6165 91.4108 36.206 91.4199C35.8457 91.4279 35.466 91.4222 35.1183 91.3115C35.1069 91.3412 35.0818 91.3651 35.0396 91.3651Z" fill="#FFCA00"/>
<path d="M55.4745 70.7767C55.4357 70.7277 55.3969 70.6798 55.357 70.6307C55.0081 71.6313 54.6695 72.6376 54.015 73.4842C53.755 73.8208 53.4574 74.1311 53.1724 74.4472C52.8622 74.7894 52.5487 75.1294 52.2248 75.458C51.6456 76.0468 51.0231 76.5807 50.3401 77.0474C49.0197 77.9487 47.5488 78.5808 46.0403 79.0908C44.3197 79.6727 42.5729 80.1827 40.7862 80.5204C39.0268 80.8524 37.2606 80.7554 35.4808 80.7201C35.0281 80.7109 34.5743 80.7075 34.1216 80.7212C33.6735 80.7338 33.2277 80.7737 32.7785 80.752C31.9062 80.7098 31.0488 80.5238 30.2039 80.3105C29.7854 80.2055 29.3681 80.0926 28.9485 79.9887C28.5357 79.886 28.1252 79.7913 27.7284 79.635C27.0204 79.3578 26.375 78.955 25.7125 78.5865C25.0524 78.2191 24.3808 77.8871 23.7514 77.4638C23.1505 77.0599 22.5815 76.6058 22.0616 76.1015C21.5428 75.5984 21.073 75.0427 20.6637 74.4472C20.227 73.8116 19.8575 73.1248 19.4607 72.4642C19.2623 72.1333 19.0776 71.7956 18.9305 71.4385C18.8085 71.1407 18.7287 70.8292 18.6204 70.5269C18.5132 70.2257 18.3992 69.9267 18.3183 69.6175C18.3068 69.5742 18.2966 69.5308 18.2863 69.4863C17.5611 69.8902 16.8816 70.3728 16.2579 70.957C16.2955 71.0494 16.3297 71.1441 16.3605 71.24C16.4677 71.5777 16.5429 71.9268 16.6695 72.2577C16.8109 72.6285 16.9682 72.997 17.1313 73.3598C17.3 73.7363 17.4836 74.1072 17.6968 74.4608C17.91 74.8123 18.1677 75.1237 18.4209 75.4455C19.3889 76.6788 20.292 78.1495 21.6728 78.9642C22.0011 79.1581 22.3398 79.3316 22.6419 79.5677C22.9658 79.821 23.2588 80.1097 23.5746 80.3709C24.212 80.8981 25.0364 81.2244 25.7946 81.5381C27.3237 82.1713 28.9279 82.63 30.5562 82.9187C31.3783 83.0647 32.2015 83.14 33.0316 83.2176C33.7853 83.2872 34.5355 83.3865 35.2904 83.4469C35.304 83.4458 35.3177 83.4458 35.3303 83.4503C35.4169 83.4572 35.5036 83.4652 35.5902 83.4709C36.4431 83.5245 37.304 83.5131 38.1409 83.3169C39.0246 83.1081 39.9105 82.9061 40.7953 82.7019C42.5159 82.3049 44.2331 81.8816 45.9024 81.2985C47.4006 80.776 48.8589 80.137 50.25 79.3737C51.6376 78.6116 52.9592 77.724 54.1735 76.7074C54.7812 76.1974 55.3627 75.6566 55.9123 75.0838C56.3365 74.6423 56.7333 74.1768 57.0685 73.6668C56.6717 72.6342 56.154 71.6541 55.4745 70.7767Z" fill="#FE85F2"/>
<path d="M51.2487 67.7819C51.1347 67.7499 51.0207 67.7214 50.9055 67.6963C50.6809 68.7551 50.4346 69.823 49.958 70.7997C49.4244 71.8938 48.5157 72.7587 47.5556 73.4855C47.5362 73.5003 47.5157 73.5128 47.4963 73.5277C47.5088 73.5904 47.4347 73.6532 47.3697 73.6178C46.3595 74.3423 45.2238 74.8534 44.0882 75.3498C42.8237 75.9031 41.5216 76.38 40.1693 76.6721C38.8432 76.9573 37.492 77.0212 36.1409 76.922C34.808 76.825 33.4682 76.6915 32.1467 76.4861C30.8366 76.2831 29.539 75.9841 28.3156 75.4661C27.2164 75.0006 26.1629 74.4153 25.2439 73.6486C24.2621 72.8294 23.5312 71.8037 22.887 70.7072C22.578 70.1813 22.2918 69.6416 21.9965 69.1088C21.8426 68.8315 21.6647 68.5075 21.6123 68.1778C21.2633 68.2827 20.9156 68.3866 20.5758 68.4984C19.8289 68.7448 19.1175 69.0437 18.4424 69.4054C18.4664 69.5115 18.4972 69.6165 18.5257 69.7135C18.6135 70.0101 18.7241 70.2988 18.8267 70.5897C18.9385 70.9115 19.0251 71.2366 19.1654 71.5481C19.4801 72.2441 19.9304 72.8728 20.3033 73.5379C21.0171 74.8135 21.9976 75.9214 23.1504 76.817C23.7205 77.2597 24.3305 77.6499 24.9656 77.9945C25.6212 78.3505 26.27 78.7213 26.9279 79.0715C27.2791 79.2586 27.6394 79.4275 28.0146 79.5576C28.4125 79.6956 28.8253 79.7789 29.2323 79.8816C30.059 80.0927 30.8822 80.3231 31.7237 80.4623C32.1649 80.5354 32.6119 80.5821 33.06 80.5867C33.4853 80.5913 33.9095 80.5502 34.3348 80.5433C35.2219 80.5274 36.109 80.5662 36.996 80.5867C37.8637 80.6072 38.736 80.6118 39.6003 80.5262C40.484 80.4384 41.3608 80.2421 42.2239 80.0356C43.8921 79.634 45.5591 79.1343 47.1577 78.5056C48.6297 77.9272 50.0424 77.1661 51.2522 76.1382C51.9192 75.5711 52.5144 74.9208 53.0993 74.2716C53.3844 73.9555 53.6843 73.6452 53.9385 73.3029C54.1552 73.0108 54.3376 72.6959 54.4972 72.3696C54.7937 71.7615 55.0103 71.1191 55.2338 70.4802C54.1894 69.2354 52.8211 68.2291 51.2487 67.7819Z" fill="#A601F5"/>
<path d="M59.4287 96.032C59.3763 91.4853 59.1528 86.941 58.6921 82.4171C58.4766 80.303 58.2646 78.1659 57.7971 76.0906C57.3695 74.1955 56.6751 72.3232 55.4756 70.7772C54.4049 69.3966 52.9454 68.2637 51.2499 67.7811C50.8429 67.6658 50.4233 67.5928 50.0026 67.5574C49.64 67.5266 49.2774 67.5369 48.9171 67.473C48.2318 67.3521 47.583 67.1033 46.9878 66.7439C44.7861 65.4159 43.3334 62.6685 43.6994 60.0888C43.7405 60.066 43.7759 60.0318 43.8009 59.9816C43.9252 59.734 43.9241 59.4442 43.9138 59.1612C43.9731 58.9798 44.0392 58.8007 44.119 58.6273C44.2217 58.4025 44.0997 58.1914 43.9286 58.1036C43.9298 58.0488 43.932 57.994 43.9286 57.9393C43.9229 57.8457 43.8842 57.7784 43.8272 57.7202C43.9093 57.5479 43.8625 57.3346 43.6721 57.1885C43.2969 56.9022 42.6539 56.9352 42.2001 56.8828C41.679 56.8234 41.1568 56.7698 40.6334 56.7219C39.6289 56.6306 38.6209 56.5679 37.613 56.5256C35.5811 56.4401 33.5299 56.4195 31.4991 56.5519C30.3293 56.6272 29.1617 56.7367 27.9964 56.8736C27.7752 56.8999 27.6463 57.0653 27.6156 57.2399C27.4422 57.2239 27.2473 57.3323 27.2667 57.5354C27.546 60.5509 27.9154 64.5123 25.2052 66.6025C23.8677 67.6339 22.1459 67.9773 20.5759 68.4953C18.9237 69.0395 17.4323 69.8256 16.169 71.0373C13.4701 73.6261 12.2318 77.2977 11.7438 80.9236C11.4621 83.0184 11.3914 85.1314 11.3185 87.2411C11.2421 89.459 11.1531 91.6759 11.0528 93.8927C10.8498 98.3276 10.5979 102.761 10.2957 107.19C10.2809 107.41 10.2649 107.629 10.249 107.848H11.3105C11.4085 106.698 11.4781 105.542 11.5431 104.388C11.9832 103.227 12.6993 102.207 13.3355 101.146C13.6867 100.56 14.128 99.9546 14.4871 99.3271C14.8212 101.628 15.6285 103.955 16.3491 106.12C16.4951 106.56 17.0435 106.52 17.2031 106.12C17.7333 104.799 18.2624 103.479 18.7926 102.158C19.1768 101.199 19.7184 100.174 20.0594 99.1491C20.0206 100.528 19.9944 101.907 19.9773 103.285C19.9659 104.23 19.959 105.173 19.9567 106.118C19.9556 106.691 19.9339 107.27 19.9465 107.848H21.0901C21.0924 107.352 21.0673 106.854 21.065 106.364C21.0616 105.543 21.0605 104.721 21.0639 103.901C21.0696 102.239 21.0878 100.575 21.1129 98.9129C21.1608 95.6099 21.2509 92.3057 21.3774 89.0049C21.4481 87.1692 21.6009 85.3083 21.4835 83.4736C21.4744 83.3287 21.252 83.2797 21.2178 83.4371C20.8689 85.0573 20.7663 86.739 20.642 88.39C20.5462 89.645 20.4619 90.9012 20.382 92.1574C20.2224 92.1323 20.0468 92.1928 19.9522 92.3468C19.829 92.5476 18.4368 92.4289 18.1643 92.4324C17.4517 92.4438 16.7391 92.4324 16.0287 92.373C14.6388 92.2555 13.4393 91.8813 12.2101 91.2903C12.2432 90.4745 12.2774 89.6575 12.307 88.8418C12.3857 86.7093 12.4199 84.5712 12.6138 82.4457C12.941 78.8699 13.852 75.1675 16.2864 72.4213C18.365 78.0153 23.3033 81.7474 29.0329 83.1393C30.9963 83.6162 33.0316 83.8296 35.0851 83.825C34.6587 84.8405 34.8491 86.2085 34.7864 87.3004C34.718 88.4926 34.5789 89.6929 34.5469 90.8875C33.0989 91.1476 31.75 91.887 30.7033 92.9526C30.636 92.9503 30.563 92.9709 30.4889 93.0199C29.4833 93.6999 28.1948 93.4968 27.0466 93.3759C25.7981 93.2447 24.5757 92.9115 23.5701 92.1243C23.285 91.9007 22.9179 92.2452 23.1664 92.5293C24.1459 93.6486 25.5575 94.0285 26.9907 94.2202C27.7741 94.3252 28.7717 94.4838 29.6383 94.3252C29.4969 94.5591 29.3658 94.7998 29.2506 95.0497C27.8345 98.1097 28.2336 102.231 31.3452 104.071C34.0487 105.67 38.0463 105.432 40.5365 103.521C41.9789 102.414 42.5786 100.864 42.785 99.0977C42.972 97.4924 43.0381 95.8871 42.3152 94.4712C43.3711 94.6766 44.5512 94.6469 45.5477 94.6275C46.615 94.607 47.8818 94.5705 48.6069 93.6646C48.8373 93.377 48.5362 92.8511 48.1748 93.1044C46.2535 94.4507 43.663 93.2675 41.5479 93.3485C40.6528 92.2566 39.3142 90.9674 37.9186 90.9833C37.8444 88.5657 37.5776 86.1434 37.5058 83.7212C41.4441 83.3961 45.3641 82.3327 48.8772 80.8301C51.8736 79.5476 54.454 77.5749 56.5006 75.0557C56.6135 75.4322 56.7127 75.8133 56.8005 76.1944C57.3091 78.4113 57.5143 80.7034 57.7252 82.9648C57.9749 85.6346 58.1346 88.3124 58.2281 90.9936C56.9738 91.3131 55.7538 91.6941 54.4574 91.847C53.2009 91.9965 51.9421 92.0205 50.6821 91.9258C50.6605 90.5589 50.6354 89.1909 50.5943 87.8241C50.5658 86.8349 50.5168 85.8468 50.4712 84.8587C50.4233 83.8547 50.356 82.8666 50.1588 81.8797C50.1497 81.8341 50.0744 81.8329 50.0653 81.8797C49.8806 82.8678 49.8235 83.8547 49.7893 84.8587C49.754 85.8685 49.7187 86.8771 49.7015 87.8868C49.6673 89.9257 49.6742 91.9645 49.6742 94.0034C49.673 98.0401 49.689 102.077 49.7038 106.113C49.7061 106.649 49.7072 107.185 49.7095 107.72C49.7095 107.762 49.7084 107.804 49.7072 107.848H50.8361C50.8326 107.476 50.8292 107.104 50.8258 106.731C50.8178 105.825 50.8098 104.918 50.8018 104.012C50.7904 102.712 50.779 101.413 50.7676 100.113C51.2773 102.016 52.2385 103.882 53.2145 105.432C53.4357 105.783 54.0503 105.759 54.1473 105.31C54.4448 103.925 54.7721 102.546 55.1518 101.181C55.3764 100.374 55.7207 99.5302 55.9659 98.687C56.7606 100.55 57.4117 102.453 58.1585 104.339C58.1699 104.369 58.1836 104.395 58.1996 104.42C58.1961 104.521 58.1939 104.621 58.1904 104.721C58.1562 105.764 58.1118 106.806 58.0662 107.848H59.2269C59.2508 107.295 59.2725 106.742 59.293 106.189C59.3341 105.067 59.3683 103.946 59.3922 102.824C59.4378 100.562 59.4538 98.2968 59.4287 96.032ZM12.3276 101.134C12.1394 101.458 11.8966 101.813 11.6662 102.186C11.7575 100.652 11.8396 99.1171 11.9194 97.5826C11.9912 97.6145 12.0664 97.6442 12.1428 97.675C12.7631 97.9203 13.4016 98.1028 14.0527 98.2363C13.3652 99.0886 12.8578 100.222 12.3276 101.134ZM17.9922 101.763C17.6011 102.743 17.21 103.723 16.8189 104.703C16.5418 103.822 16.2796 102.938 16.0333 102.048C15.7003 100.845 15.478 99.5952 15.0994 98.4052C16.5429 98.5832 17.983 98.5204 19.4037 98.2386C18.7949 99.31 18.4414 100.638 17.9922 101.763ZM16.7356 93.3702C17.7516 93.4261 18.8553 93.4831 19.8667 93.3508C20.024 93.3303 20.1791 93.2926 20.3125 93.2333C20.3114 93.2595 20.3091 93.2858 20.3079 93.312C20.2315 94.6036 20.17 95.8963 20.1221 97.1889C20.0343 97.149 19.9305 97.1353 19.8119 97.1638C18.5326 97.4788 17.2373 97.6043 15.9204 97.5381C15.2613 97.505 14.608 97.4205 13.9615 97.2825C13.6502 97.2163 12.0836 96.9767 11.9821 96.6527C11.9787 96.6413 11.9729 96.631 11.9684 96.6196C11.9866 96.2442 12.0072 95.87 12.0254 95.4946C12.0778 94.4096 12.1257 93.3246 12.1725 92.2395C13.535 93.0256 15.1872 93.2858 16.7356 93.3702ZM41.8375 57.8605C42.118 57.8914 42.3996 57.9233 42.6801 57.9575C42.899 57.9838 43.1225 58.0306 43.3403 58.0066C43.3277 58.0499 43.3141 58.0922 43.3015 58.1355C43.2445 58.3397 43.2228 58.5531 43.2012 58.7642C43.1955 58.8212 43.1886 58.8805 43.1829 58.9422C42.2274 61.6462 43.2776 64.7998 45.3835 66.7052C46.5374 67.7491 47.9912 68.4189 49.5545 68.485C49.7643 68.4942 49.9695 68.5147 50.1724 68.5444C50.1713 68.5478 50.169 68.5512 50.1679 68.5546C49.6536 70.3185 48.7027 71.7173 47.4781 72.8115C47.087 72.4247 46.5933 72.1315 46.1646 71.7881C45.5694 71.3123 44.9925 70.8126 44.452 70.2763C43.3973 69.2289 42.5022 68.0389 41.8933 66.6778C40.6243 63.8425 40.663 60.7586 40.4464 57.7248C40.9116 57.7659 41.3745 57.8103 41.8375 57.8605ZM36.1535 74.0677C36.0965 73.2154 36.0452 72.362 35.9996 71.5085C35.9152 69.9158 35.8559 68.3219 35.8103 66.7268C35.7647 65.1318 35.7339 63.5379 35.7282 61.9429C35.7248 61.1453 35.7305 60.3478 35.7351 59.5503C35.7385 58.8714 35.8126 58.1435 35.7111 57.4624C36.1923 57.4726 36.6723 57.4875 37.1523 57.5069C37.0292 59.1977 37.0908 60.9217 37.1033 62.6149C37.1159 64.2864 37.0862 65.9772 37.3234 67.6362C37.556 69.2689 38.0656 70.8354 38.7076 72.3506C39.0075 73.0579 39.3324 73.7528 39.6722 74.4419C39.9094 74.9234 40.1226 75.463 40.4225 75.924C39.1295 76.1488 37.8205 76.2515 36.5685 76.2537C36.4522 76.2537 36.3359 76.2526 36.2196 76.2515C36.3519 75.5429 36.2014 74.7831 36.1535 74.0677ZM41.4247 75.7243C41.2434 75.0968 40.8386 74.5035 40.5547 73.9262C40.2104 73.2245 39.8763 72.516 39.5764 71.7938C38.9869 70.3756 38.5001 68.8981 38.28 67.3738C37.8102 64.13 38.1569 60.8122 37.9562 57.5502C38.5149 57.5799 39.0725 57.6164 39.63 57.6597C39.4966 60.7871 39.7258 64.1551 40.9823 67.0452C41.6106 68.4896 42.541 69.7675 43.6424 70.8879C44.2103 71.4652 44.8191 71.9991 45.4497 72.5069C45.8385 72.8195 46.2364 73.1891 46.6743 73.463C45.1566 74.5663 43.3289 75.2908 41.4247 75.7243ZM34.9814 57.4532C34.8571 58.0773 34.8924 58.7528 34.8742 59.3792C34.8502 60.2337 34.8423 61.0883 34.8354 61.9429C34.8229 63.5379 34.8286 65.1329 34.8616 66.7268C34.8947 68.3207 34.9574 69.9158 35.0372 71.5085C35.0771 72.3049 35.1216 73.1013 35.1729 73.8965C35.2208 74.6484 35.1661 75.511 35.4101 76.2332C33.7727 76.1716 32.1046 75.9639 30.5208 75.5475C31.295 75.0637 31.7466 73.9445 31.9757 73.1538C32.4216 71.6181 32.5732 69.966 32.7591 68.3823C33.1844 64.7655 33.3474 61.0906 33.108 57.4544C33.7328 57.4464 34.3577 57.4464 34.9814 57.4532ZM32.2882 57.4692C32.3589 60.6684 32.311 63.8574 31.9849 67.0429C31.8207 68.6436 31.6132 70.2467 31.3076 71.8269C31.1924 72.4213 31.0579 73.0271 30.8116 73.5828C30.522 74.2365 30.034 74.5731 29.6007 75.0991C29.5608 75.1481 29.5346 75.1995 29.5175 75.2508C28.1207 74.7899 26.8163 74.1453 25.6875 73.269C30.4558 69.9055 30.1548 62.7974 30.4616 57.6426C30.4638 57.6038 30.4616 57.5685 30.4559 57.5354C31.0659 57.5069 31.677 57.484 32.2882 57.4692ZM25.3237 67.7172C26.7433 66.7805 27.6452 65.3509 28.0055 63.6999C28.3636 62.0592 28.2872 60.3375 28.0568 58.6854C28.0101 58.3512 27.9553 58.018 27.9006 57.686C27.9303 57.6894 27.9622 57.6905 27.9964 57.6883C28.5277 57.6472 29.0602 57.6107 29.5927 57.5799C29.5881 57.6004 29.5836 57.6209 29.5824 57.6438C29.2198 62.883 29.4627 69.011 24.9098 72.5582C24.9007 72.5651 24.895 72.573 24.8882 72.5799C23.8859 71.6181 23.0695 70.4292 22.5177 68.9676C23.496 68.6493 24.4617 68.2865 25.3237 67.7172ZM20.5793 69.5872C20.9544 69.4583 21.3364 69.3385 21.7195 69.2198C22.9145 73.8623 27.8231 76.3382 32.2026 76.9965C37.028 77.7233 42.7371 77.5031 46.8772 74.6302C48.9137 73.2165 50.5031 71.2404 51.1793 68.8342C51.1838 68.8159 51.1849 68.7999 51.1884 68.7828C52.3514 69.1628 53.381 69.8781 54.2339 70.8069C54.4186 71.0077 54.5908 71.2165 54.7527 71.4321C54.6193 71.4538 54.495 71.5325 54.4129 71.6945C51.7961 76.8527 46.1441 79.2065 40.6619 79.8101C35.1364 80.4182 28.6828 80.2231 23.9361 76.9862C21.5188 75.3376 19.8074 73.0716 19.0104 70.2683C19.5098 70.0036 20.0309 69.7754 20.5793 69.5872ZM41.0872 94.4883C41.9321 95.6498 41.9002 97.0052 41.7554 98.371C41.6185 99.6636 41.4224 100.999 40.5342 102.008C39.8204 102.82 38.8307 103.345 37.8057 103.648C35.7214 104.264 33.116 104.118 31.3566 102.728C29.1104 100.954 29.1765 97.4753 30.449 95.1421C31.4307 93.3428 33.173 92.1585 35.1091 91.8893C34.3371 92.3319 33.6234 92.8773 33.051 93.3942C31.7682 94.5534 31.0522 95.9887 31.3042 97.7332C31.5391 99.3567 32.0772 101.145 33.5059 102.111C36.1033 103.868 39.7657 102.243 40.3848 99.2381C40.6927 97.7434 40.3529 96.1313 39.4043 94.9287C38.4317 93.6954 36.7692 92.9663 35.3576 93.9486C33.9746 94.9105 33.2596 97.052 33.9096 98.6231C34.4854 100.014 36.3667 100.825 37.654 99.8359C38.9299 98.8547 38.4773 96.9037 37.3861 95.9727C36.8627 95.5254 36.1729 95.3977 35.7271 96.0126C35.1957 96.7474 35.3953 97.7982 35.7214 98.5604C35.9448 99.0829 36.8718 98.7007 36.6483 98.169C36.4899 97.7936 36.1923 96.2944 36.9026 96.9413C37.3211 97.3224 37.5274 98.145 37.2766 98.6539C36.979 99.2586 36.2333 99.3077 35.6792 99.0487C35.0555 98.7578 34.7738 98.1245 34.7453 97.4639C34.6974 96.3401 35.4728 94.615 36.7635 94.534C38.093 94.4507 39.0405 95.935 39.3176 97.0623C39.882 99.3487 38.4693 101.711 35.9961 101.742C34.8685 101.757 33.856 101.255 33.2482 100.293C32.628 99.3111 32.1719 97.651 32.36 96.4941C32.5561 95.2904 33.5527 94.3514 34.4865 93.6611C35.4055 92.9811 36.8422 92.033 38.0303 92.0752C39.1078 92.1129 40.4829 93.6577 41.0872 94.4883ZM36.979 90.9183C36.4454 90.8076 35.9095 90.7677 35.3827 90.7928C35.5344 89.7488 35.5868 88.6821 35.6552 87.6335C35.6985 86.9672 35.7362 86.3009 35.767 85.6346C35.7943 85.0481 35.8981 84.4377 35.6951 83.8798C35.6872 83.8581 35.6758 83.8376 35.6632 83.8171C35.9984 83.8102 36.3337 83.7977 36.6689 83.7783C36.6894 86.1355 36.6814 88.5714 36.979 90.9183ZM55.9362 74.0871C52.1701 79.0228 46.2969 81.1986 40.3746 82.3099C34.4979 83.412 28.1355 82.9305 23.0479 79.5453C20.2372 77.6753 18.1016 74.9667 16.9124 71.8075C16.909 71.7972 16.9032 71.7892 16.8987 71.7801C17.3331 71.3693 17.7972 71.0077 18.2909 70.6893C19.3843 76.1762 24.952 79.494 30.0591 80.5106C33.2186 81.1392 36.5218 81.1997 39.7258 80.9476C42.8409 80.7023 45.9571 80.0417 48.754 78.6075C51.5076 77.195 53.893 75.0421 55.316 72.2718C55.6295 72.8001 55.8929 73.358 56.1175 73.9319C56.0502 73.9673 55.9887 74.0186 55.9362 74.0871ZM58.0924 92.0193C58.0969 92.0421 58.1049 92.0638 58.1163 92.0844C58.1266 92.122 58.146 92.1539 58.1733 92.1813C58.1927 92.2144 58.219 92.2407 58.252 92.2601C58.2566 92.2646 58.2634 92.268 58.2691 92.2726C58.301 93.4626 58.3204 94.6538 58.3273 95.8438C55.7675 96.6618 53.3354 96.6276 50.7346 96.226C50.7243 95.0793 50.7118 93.9338 50.6958 92.7872C53.1028 93.045 55.7983 92.9184 58.0924 92.0193ZM54.2271 100.928C53.9431 101.882 53.6855 102.841 53.4506 103.808C52.9865 102.952 52.584 102.068 52.259 101.146C51.8087 99.869 51.5989 98.5421 51.2055 97.254C51.1975 97.2266 51.1872 97.2015 51.1747 97.1775C52.5418 97.513 54.0013 97.5666 55.4289 97.4103C54.828 98.4417 54.5577 99.8131 54.2271 100.928ZM56.4585 97.2597C57.0993 97.1433 57.7264 96.987 58.3296 96.7976C58.3296 97.0109 58.3318 97.2255 58.3307 97.4399C58.3273 98.8741 58.3056 100.308 58.2725 101.742C57.7594 100.21 57.1107 98.7064 56.4585 97.2597Z" fill="#221025"/>
<path d="M27.0193 91.5296C27.3112 91.0846 27.1174 90.4069 26.635 90.1844C26.4104 90.0806 26.1687 90.0852 25.9543 90.1776C25.87 90.1559 25.781 90.165 25.7023 90.2221C25.2212 90.5644 25.1254 91.2569 25.5655 91.6848C25.9737 92.083 26.7057 92.0065 27.0193 91.5296ZM26.2508 91.0618C26.2508 91.063 26.2508 91.063 26.2508 91.0618C26.2496 91.063 26.2508 91.0618 26.2508 91.0618C26.2508 91.0607 26.2508 91.0607 26.2508 91.0607C26.2508 91.0618 26.2508 91.0618 26.2508 91.0618ZM26.2508 91.063C26.2508 91.0652 26.2496 91.0675 26.2496 91.0698C26.2496 91.0687 26.2496 91.0675 26.2496 91.0664C26.2496 91.0652 26.2496 91.0652 26.2508 91.063C26.2496 91.0641 26.2496 91.0641 26.2508 91.063ZM26.2531 91.0538C26.2531 91.0538 26.2531 91.0527 26.2531 91.0538C26.2531 91.0538 26.2531 91.0527 26.2531 91.0538ZM26.2531 91.0516C26.2531 91.0504 26.2519 91.0493 26.2519 91.0481C26.2519 91.0458 26.2531 91.0458 26.2542 91.0481C26.2531 91.0493 26.2531 91.0504 26.2531 91.0516ZM26.2383 91.0299C26.2371 91.0276 26.2371 91.0265 26.2348 91.0242C26.2177 90.9911 26.2269 91.0082 26.2383 91.0299C26.2394 91.0299 26.2394 91.0299 26.2383 91.0299ZM26.2496 91.0538C26.2496 91.055 26.2508 91.0561 26.2508 91.0584C26.2508 91.0573 26.2508 91.0561 26.2519 91.0561C26.2519 91.055 26.2519 91.0538 26.2519 91.0527C26.2519 91.0538 26.2531 91.0538 26.2531 91.0538V91.055V91.0538C26.2531 91.055 26.2542 91.055 26.2542 91.055C26.2542 91.055 26.2542 91.0561 26.2542 91.0573C26.2542 91.0573 26.2542 91.0573 26.2531 91.0573C26.2531 91.0561 26.2531 91.0561 26.2531 91.055C26.2531 91.055 26.2531 91.055 26.2531 91.0561C26.2531 91.0561 26.2531 91.0561 26.2531 91.0573H26.2519C26.2496 91.0573 26.2496 91.055 26.2496 91.0538ZM26.2496 91.039C26.2508 91.0264 26.2542 91.0253 26.2531 91.0401C26.2519 91.039 26.2508 91.039 26.2496 91.039Z" fill="#221025"/>
<path d="M46.3515 90.3824C46.3241 90.4246 46.3036 90.4691 46.2865 90.5147C46.1565 90.6208 46.0619 90.768 46.0265 90.9357C45.8874 91.5838 46.6183 92.0139 47.1816 91.845C47.7346 91.6796 48.0937 90.9699 47.7733 90.452C47.4666 89.958 46.6867 89.8667 46.3515 90.3824Z" fill="#221025"/>
<path d="M54.1993 47.4303C54.4422 46.424 54.7147 45.4245 54.9656 44.4193C55.4764 42.3725 55.953 40.3142 56.2745 38.2285C56.5904 36.1771 56.7295 34.1109 56.5596 32.0389C56.3988 30.0776 55.9701 28.1517 55.3726 26.2794C55.2415 25.9337 55.1058 25.588 54.9656 25.2457C54.3726 23.8024 53.6942 22.3934 52.9166 21.0413C52.5278 20.3648 52.1127 19.7019 51.6715 19.0572C51.2781 18.4833 50.8665 17.922 50.3807 17.4222C49.643 16.6624 48.7571 16.0794 47.7468 15.7531C46.7617 15.4347 45.7207 15.3434 44.6922 15.283C43.2783 15.1985 41.8645 15.1073 40.4495 15.1974C38.7904 15.3035 37.1428 15.5579 35.4815 15.6196C33.8818 15.6777 32.2878 15.7884 30.7086 16.0668C29.4008 16.2973 28.1454 16.6784 26.8809 17.0731C25.8353 17.3994 24.7897 17.7429 23.7909 18.1958C23.3063 18.416 22.8286 18.6613 22.3896 18.9648C22.1615 19.1223 21.938 19.3002 21.7488 19.5056C21.7659 19.5296 21.7727 19.5615 21.7568 19.5946C21.6336 19.849 21.4865 20.0909 21.3223 20.3225C20.6165 21.3152 19.6736 22.107 18.8378 22.9832C18.4307 23.4111 18.0796 23.8743 17.7101 24.3341C17.3646 24.7642 16.9975 25.1761 16.6292 25.5857C15.1903 27.1887 13.5597 28.9481 13.6737 31.2574C13.749 32.7805 13.7456 34.3048 13.7855 35.828C13.8266 37.3877 13.9599 38.9245 14.1857 40.4682C14.4058 41.9686 14.6509 43.4655 14.9337 44.9556C15.0774 45.712 15.2302 46.4662 15.3955 47.2181C15.5551 47.9483 15.7478 48.6705 15.9097 49.4007C16.0682 50.1172 16.2301 50.8337 16.4388 51.5377C16.6315 52.1869 16.8892 52.811 17.0796 53.4602C17.2404 54.0067 17.3806 54.568 17.5448 55.1191C18.0921 54.8122 18.579 54.5201 18.9108 54.3649C19.1867 54.236 19.4832 54.0866 19.6109 53.8104C19.7272 53.5594 19.6747 53.2651 19.62 52.9935C18.6862 48.3054 18.0967 43.5499 17.8572 38.7762C17.6212 34.0618 17.8458 28.9641 20.7134 25.2172C22.5435 22.8258 25.2937 21.2524 28.1898 20.4332C31.086 19.614 34.1372 19.4988 37.1451 19.6163C38.8543 19.6825 40.5851 19.8285 42.1963 20.4035C45.5804 21.6129 48.0798 24.6319 49.4401 27.9589C49.9144 29.1204 50.2724 30.3378 50.3978 31.586C50.5541 33.1388 50.35 34.703 50.1459 36.2501C49.3409 42.3599 48.5347 48.4697 47.7297 54.5783C49.2873 54.8099 50.8174 55.2161 52.286 55.7831C52.6623 54.074 53.0488 52.3672 53.4434 50.6637C53.6953 49.5878 53.9405 48.5073 54.1993 47.4303Z" fill="#29A0D7"/>
<path d="M54.7857 45.8311C54.5828 46.6252 54.3787 47.4192 54.1928 48.2168C53.9408 49.295 53.6888 50.3743 53.4403 51.4536C53.1028 52.9175 52.7698 54.3824 52.4471 55.8508C53.1997 56.1486 53.9363 56.4875 54.65 56.8686C55.2851 55.7618 55.5246 54.4794 55.7983 53.2335C56.26 51.1399 56.8507 49.0748 57.5622 47.0519C56.6397 46.64 55.6979 46.268 54.7857 45.8311Z" fill="#A601F5"/>
<path d="M62.9759 33.9499C60.919 34.1576 58.8415 34.1929 56.8096 34.598C56.8039 34.5991 56.7982 34.598 56.7925 34.598C56.7481 36.0401 56.5805 37.4754 56.3399 38.9016C55.9853 41.0021 55.4858 43.074 54.9625 45.138C54.918 45.3137 54.8736 45.4894 54.8279 45.664C54.8359 45.6651 54.8439 45.6663 54.8519 45.6697C55.7606 46.1055 56.699 46.4764 57.6203 46.886C59.1231 42.6576 61.1573 38.6187 63.6714 34.9014C63.8983 34.566 64.1332 34.2135 64.1937 33.8164C63.79 33.8712 63.3818 33.9088 62.9759 33.9499Z" fill="#FE85F2"/>
<path d="M16.6546 52.7024C16.4003 51.9995 16.1791 51.2956 16.0024 50.5699C15.8268 49.8489 15.6785 49.1209 15.5075 48.3976C15.3296 47.6434 15.1461 46.8949 14.9921 46.1351C14.8393 45.3832 14.6957 44.629 14.5623 43.8726C14.5474 43.7904 14.5338 43.7071 14.5189 43.625C14.5167 43.6261 14.5144 43.6284 14.511 43.6284C13.7276 43.8475 12.9261 44.0426 12.1154 44.1145C11.4905 44.1704 10.8566 44.1681 10.2386 44.2708C10.6947 46.4192 11.2123 48.5539 11.86 50.6521C12.2419 51.8877 12.8805 55.3277 13.9956 56.067C14.7447 56.5633 16.1916 55.873 17.3946 55.2056C17.1448 54.3727 16.951 53.5204 16.6546 52.7024Z" fill="#A601F5"/>
<path d="M12.0378 43.9487C12.8611 43.8814 13.6729 43.6829 14.4665 43.4616C14.4756 43.4593 14.4836 43.4593 14.4916 43.4593C14.2544 42.097 14.0366 40.729 13.8588 39.3587C13.6581 37.8184 13.617 36.2645 13.5931 34.7139C13.5805 33.9335 13.5726 33.1531 13.5498 32.3727C13.5304 31.7075 13.4506 31.0344 13.5384 30.3726C13.5976 29.9254 13.7185 29.5021 13.8827 29.097C13.8747 29.0936 13.8679 29.0913 13.8599 29.0856C13.747 28.9944 13.5862 28.959 13.4483 28.927C13.3057 28.8951 13.161 28.8734 13.0162 28.8597C12.2796 28.7867 11.535 28.8837 10.7973 28.8574C10.1268 28.8335 9.45868 28.7913 8.79052 28.7354C7.95588 32.0715 8.5864 35.6632 9.22834 39.0815C9.53734 40.7564 9.85205 42.4336 10.2044 44.1039C10.8075 44.0012 11.4267 43.9989 12.0378 43.9487Z" fill="#FE85F2"/>
<path d="M20.262 20.4071C20.0738 20.2747 19.8834 20.1446 19.7067 19.9975C19.0682 19.4624 18.2905 19.1531 17.5494 18.7915C16.9154 18.4823 16.2849 18.1172 15.8493 17.5547C15.3648 17.994 14.8996 18.4572 14.4629 18.9523C13.1972 20.3888 12.1915 22.0318 11.1927 23.6645C10.4082 24.948 9.61692 26.243 9.11181 27.6612C9.00463 27.9613 8.91341 28.2636 8.83246 28.5671C9.18364 28.5968 9.53597 28.6219 9.8883 28.6424C10.2783 28.6652 10.6682 28.6846 11.0593 28.6926C11.4436 28.7017 11.8267 28.6755 12.2098 28.6664C12.5553 28.6572 12.9008 28.6641 13.2428 28.7143C13.48 28.7497 13.7479 28.7964 13.9475 28.9402C14.6077 27.4353 15.8733 26.1928 16.9394 24.9822C17.302 24.5704 17.6418 24.1437 17.9781 23.7101C18.3647 23.2126 18.8059 22.7631 19.2518 22.3204C19.7512 21.8252 20.2814 21.3301 20.7443 20.787C20.6063 20.6375 20.4273 20.5234 20.262 20.4071Z" fill="#A601F5"/>
<path d="M31.8434 14.5013C31.3041 13.0762 30.6485 11.658 29.6234 10.5137C28.3452 10.8183 27.1138 11.3055 25.8972 11.8064C22.3682 13.2599 18.8096 14.9211 15.9819 17.4381C16.2054 17.7313 16.4859 17.9755 16.796 18.1785C17.4801 18.6246 18.2555 18.903 18.9704 19.2944C19.1483 19.3914 19.3216 19.4952 19.488 19.6116C19.6488 19.7234 19.7936 19.8535 19.9487 19.971C20.1209 20.1022 20.301 20.2231 20.4766 20.3498C20.6066 20.4433 20.7445 20.5392 20.8563 20.6555C21.0456 20.4251 21.2223 20.1866 21.3762 19.9333C21.3226 19.9242 21.2759 19.8671 21.3113 19.8067C21.4105 19.6355 21.5336 19.4804 21.6716 19.3389C22.3956 18.5938 23.4195 18.1466 24.367 17.7644C25.3544 17.3662 26.3715 17.0524 27.3863 16.7364C28.0533 16.5287 28.7158 16.3199 29.3965 16.1602C30.1719 15.9788 30.9563 15.8396 31.7453 15.7335C31.9084 15.7118 32.0714 15.6924 32.2345 15.673C32.125 15.276 31.9894 14.8858 31.8434 14.5013Z" fill="#FE85F2"/>
<path d="M44.0029 10.1499C42.3142 9.93537 41.4089 10.0803 39.7088 10.1499C37.637 10.2354 35.7831 9.98557 33.7113 10.07C32.5471 10.1179 31.3784 10.167 30.2336 10.3815C30.0934 10.4077 29.9543 10.4385 29.8163 10.4693C30.0557 10.7454 30.2758 11.0398 30.4799 11.3422C30.9269 12.0039 31.2906 12.7079 31.6019 13.4427C31.9063 14.1626 32.2016 14.8962 32.408 15.6515C32.9975 15.5854 33.5881 15.5363 34.1799 15.5021C35.0009 15.4541 35.8218 15.4427 36.6416 15.3766C38.352 15.2397 40.0566 14.9795 41.7761 14.9784C42.483 14.9784 43.1899 15.032 43.8946 15.0674C44.4635 15.0959 45.0325 15.1244 45.6003 15.1769C45.6254 15.1792 45.6517 15.1826 45.6767 15.1849C45.6779 15.1735 45.6813 15.1632 45.687 15.1507C45.8763 14.8027 46.0017 14.4284 46.0929 14.0451C46.2537 13.3696 46.3141 12.6759 46.4715 12.0005C46.549 11.6673 46.6505 11.3399 46.7998 11.0318C46.8865 10.8516 46.9845 10.677 47.0849 10.5036C46.0667 10.2834 44.7794 10.248 44.0029 10.1499Z" fill="#A601F5"/>
<path d="M49.5703 12.0806C49.1291 11.6539 48.6787 11.2295 48.1622 10.8986C47.9262 10.7469 47.6126 10.6328 47.2591 10.5449C47.1189 10.78 46.9855 11.0184 46.8783 11.2694C46.6058 11.9084 46.5237 12.6146 46.4119 13.2935C46.3036 13.9518 46.1657 14.6101 45.8521 15.2045C46.7791 15.305 47.7004 15.4886 48.551 15.8846C49.5783 16.3626 50.4289 17.1328 51.1267 18.0158C52.0811 19.223 52.8826 20.5716 53.6021 21.9293C54.3056 23.2551 54.9156 24.6288 55.4561 26.0287C55.4607 26.0321 55.4618 26.0378 55.4664 26.0424C55.7537 25.764 56.0125 25.4571 56.228 25.1194C56.4321 24.7976 56.5895 24.4474 56.7719 24.1131C56.9612 23.7674 57.155 23.4239 57.3135 23.0634C57.4709 22.704 57.5495 22.3206 57.6909 21.9567C57.7468 21.8129 57.8084 21.6703 57.8699 21.5277C55.366 18.1608 52.5885 14.9969 49.5703 12.0806Z" fill="#FE85F2"/>
<path d="M64.0055 32.7198C63.5472 31.4065 63.0877 30.0922 62.5016 28.8314C61.7513 27.2193 60.8004 25.7087 59.8015 24.238C59.2155 23.3743 58.61 22.5232 57.9886 21.6846C57.9179 21.8489 57.8495 22.0132 57.7902 22.182C57.7252 22.368 57.683 22.5597 57.6203 22.7456C57.5576 22.9305 57.4824 23.1107 57.3991 23.2876C57.2292 23.6504 57.0285 23.9984 56.8381 24.351C56.6523 24.6967 56.4892 25.0503 56.2646 25.3732C56.0514 25.679 55.8062 25.9597 55.536 26.2164C55.5349 26.2175 55.5337 26.2175 55.5326 26.2187C55.5349 26.2255 55.536 26.2312 55.5383 26.2369C55.5451 26.2552 55.5531 26.2746 55.56 26.2928C55.5645 26.3042 55.5645 26.3134 55.5645 26.3236C55.617 26.4879 55.6694 26.6522 55.7184 26.8177C56.2931 28.7402 56.6705 30.7208 56.7754 32.7266C56.8051 33.2948 56.8096 33.8618 56.796 34.4278C57.3501 34.3182 57.9099 34.2349 58.4709 34.1688C59.496 34.0467 60.5256 33.9805 61.5541 33.9029C62.4377 33.8356 63.3282 33.7672 64.2085 33.6474C64.2153 33.329 64.1104 33.0187 64.0055 32.7198Z" fill="#A601F5"/>
<path d="M17.5026 35.8277C17.4388 33.8128 17.4274 31.7614 17.9918 29.8264C19.3532 25.1576 23.8525 22.0052 28.5114 20.6212C33.607 19.1083 39.1929 19.2989 44.1734 21.1575C45.4014 21.6161 46.6226 22.1923 47.5336 23.1347C48.3649 23.9939 48.8893 25.1097 49.228 26.2575C49.8448 28.3523 49.879 30.5714 49.8471 32.7552C49.7445 39.7959 49.0022 46.8276 47.6351 53.736C47.5838 53.9927 47.5222 54.2688 47.325 54.4423C47.0422 54.691 46.6123 54.626 46.2429 54.5552C41.08 53.5751 35.7746 54.5655 30.5205 54.6887C28.3415 54.74 26.1626 54.6408 23.9859 54.5427C22.7568 54.4868 20.1901 54.7047 19.3874 53.6071C18.5585 52.4741 18.6748 49.4495 18.4946 48.0667C17.9633 44.006 17.6326 39.9203 17.5026 35.8277Z" fill="#FFCA00"/>
<path d="M10.9856 48.0791C11.6161 49.6627 12.1509 51.2852 12.583 52.9338C11.9411 53.1335 11.2672 53.2328 10.5956 53.2248C10.1931 53.2202 9.79175 53.178 9.39039 53.202C9.005 53.2248 8.6253 53.3069 8.24218 53.3571C7.54437 53.4484 6.83858 53.4324 6.13506 53.4165C5.79756 53.4085 3.47607 53.4781 3.4852 53.2042C3.49318 52.9954 4.49885 52.4774 4.68699 52.3497C5.10431 52.0667 5.52163 51.7838 5.93781 51.5008C7.62077 50.3621 9.30373 49.2212 10.9856 48.0791Z" fill="#FFFF00"/>
<path d="M8.83482 34.5664C9.00471 36.5904 9.19856 38.6133 9.41634 40.6328C8.74704 40.6134 8.07657 40.5929 7.40727 40.5735C6.37651 40.5427 5.34463 40.513 4.31615 40.4252C3.84296 40.3852 1.77118 40.3864 1.59558 39.8821C1.39605 39.3082 2.90228 38.4456 3.23295 38.2026C4.06987 37.5865 4.92503 36.9932 5.79387 36.4239C6.78814 35.7735 7.80292 35.154 8.83482 34.5664Z" fill="#FFFF00"/>
<path d="M18.2165 39.0141C18.8128 41.2469 19.9531 43.6155 22.1206 44.413C22.9245 44.7085 23.8036 44.7553 24.6542 44.6538C28.0155 44.2499 30.7726 41.5721 32.142 38.4744C32.3244 38.0614 32.4943 37.6289 32.8044 37.3015C33.354 36.7208 34.2867 36.5918 35.021 36.9079C35.7553 37.2239 36.2832 37.9267 36.4942 38.6969C36.7199 39.5206 36.6162 40.4026 36.7906 41.2389C37.1281 42.8647 38.5112 44.138 40.079 44.6811C41.6468 45.2242 43.3708 45.1307 44.9945 44.7918C45.8269 44.6172 46.6615 44.3742 47.3718 43.9053C48.4687 43.1819 49.1745 41.9748 49.5474 40.7141C49.9202 39.4533 49.9955 38.1276 50.0673 36.8155C50.1483 35.3459 50.2292 33.8764 50.309 32.4068C47.967 31.5774 45.3958 32.1205 42.9125 32.206C40.599 32.2859 38.2934 31.9596 35.9856 31.7839C32.63 31.5283 29.2607 31.5899 25.9004 31.7131C24.2004 31.7748 22.5003 31.8535 20.7991 31.9128C20.4171 31.9265 20.0363 31.9391 19.6543 31.9505C19.2883 31.9607 18.6315 31.8466 18.2975 31.9835C17.7912 32.1923 17.7479 33.3265 17.6897 33.8775C17.5062 35.6015 17.7707 37.3483 18.2165 39.0141Z" fill="#00B76D"/>
<path d="M55.7934 54.586C58.2483 54.6727 60.7031 54.7594 63.158 54.8461C63.2777 54.8507 63.4385 54.8187 63.4431 54.6989C61.4295 53.1199 59.417 51.5397 57.4034 49.9606C56.9952 49.64 57.0396 49.9332 56.9496 50.2002C56.7911 50.6668 56.6326 51.1415 56.4878 51.615C56.1913 52.5893 55.9587 53.5819 55.7934 54.586Z" fill="#FFFF00"/>
<path d="M58.7078 44.6885C61.2755 45.5544 64.077 45.1403 66.7531 44.7181C67.2742 44.636 67.7953 44.5538 68.3175 44.4705C66.346 42.3952 63.8399 40.8366 62.1181 38.549C61.6176 37.885 61.2869 38.8035 61.0235 39.2382C60.6735 39.8166 60.3508 40.4111 60.0589 41.0215C59.9209 41.3101 58.5413 44.6326 58.7078 44.6885Z" fill="#FFFF00"/>
<path d="M67.4353 23.7676C67.0431 24.3118 66.611 24.8252 66.18 25.3386C65.0705 26.6599 63.9623 27.9811 62.8528 29.3023C62.7993 29.3662 62.7354 29.4346 62.6522 29.4369C62.5849 29.4381 62.5267 29.3947 62.4777 29.3479C62.2405 29.122 62.1243 28.8014 62.0034 28.4968C61.6397 27.5749 61.1825 26.6918 60.642 25.8623C60.496 25.6387 59.8997 25.05 59.918 24.7773C59.9442 24.3848 60.7936 24.3985 61.1038 24.3449C62.1494 24.1646 63.2018 24.0254 64.2576 23.9296C64.8026 23.8794 65.3488 23.8417 65.8961 23.8143C66.099 23.8041 67.3418 23.8976 67.4353 23.7676Z" fill="#FFFF00"/>
<path d="M61.1401 11.1348C60.1082 14.2404 58.5757 17.1795 56.6202 19.8025C56.578 19.8584 56.5256 19.9212 56.4549 19.92C56.3888 19.9189 56.3386 19.8619 56.2975 19.8105C55.8985 19.3039 55.5005 18.7985 55.1015 18.2919C54.545 17.5845 53.9863 16.8749 53.5405 16.0922C53.2646 15.6073 52.9943 15.1886 52.6055 14.7926C52.9339 14.3408 54.0776 14.0499 54.6009 13.8126C55.3215 13.4851 56.0433 13.1622 56.7708 12.8485C58.2074 12.2278 59.66 11.6436 61.1401 11.1348Z" fill="#FFFF00"/>
<path d="M38.8623 2.81442C38.6286 3.22744 38.3937 3.6416 38.2192 4.08315C37.9729 4.70953 37.8544 5.37698 37.7016 6.03188C37.3698 7.46035 36.8749 8.84431 36.3812 10.2237C37.9969 10.4131 39.624 10.5112 41.2511 10.5158C41.4757 10.5169 41.7505 10.4827 41.836 10.2751C41.8782 10.1712 41.8565 10.0526 41.8337 9.94191C41.4814 8.23505 41.1291 6.52705 40.7117 4.83389C40.4997 3.97475 40.2933 3.10307 40.0173 2.26219C39.6491 1.1395 39.1736 2.26562 38.8623 2.81442Z" fill="#FFFF00"/>
<path d="M21.3706 14.1371C22.9053 13.464 24.6955 13.3133 26.0113 12.2751C26.0957 12.2078 26.1858 12.1222 26.1812 12.0138C26.1778 11.9339 26.1242 11.8678 26.0717 11.8073C24.439 9.89734 22.8073 7.98625 21.1745 6.0763C20.8758 5.72716 20.1027 4.73682 19.5463 4.8532C19.1495 4.93535 19.5976 5.8173 19.6375 6.17327C19.8302 7.90181 20.0833 9.60525 20.512 11.2939C20.7549 12.2534 21.0422 13.2027 21.3706 14.1371Z" fill="#FFFF00"/>
<path d="M9.03447 21.1985C9.60572 22.1535 10.0744 23.1667 10.6399 24.125C10.6787 24.1912 10.722 24.2597 10.7904 24.2928C10.9443 24.3681 11.1131 24.2255 11.2248 24.0954C12.1769 22.983 13.007 21.7679 13.6968 20.4763C13.723 20.4272 13.7493 20.3748 13.7436 20.32C13.7356 20.247 13.6751 20.1934 13.6181 20.1489C13.1244 19.7655 12.5486 19.5031 11.9785 19.2486C10.397 18.5424 8.78364 17.851 7.42678 16.7739C7.30364 16.6758 7.17022 16.5708 7.01287 16.5674C6.3926 16.5572 7.4131 18.5504 7.57159 18.8379C8.01514 19.6514 8.559 20.4044 9.03447 21.1985Z" fill="#FFFF00"/>
<path d="M15.1803 56.5366C14.6683 57.0945 14.2236 57.7517 14.1051 58.5001C13.9865 59.2474 14.2613 60.0952 14.9135 60.4797C15.5292 60.8425 16.3034 60.7273 17.0046 60.5892C21.7149 59.6605 26.3647 58.2069 31.1639 58.086C32.5561 58.0506 33.9494 58.1293 35.3405 58.2069C37.9584 58.3541 40.6003 58.5047 43.1293 59.1972C43.9879 59.4323 44.8293 59.7289 45.6948 59.9343C46.4599 60.1157 47.2398 60.2252 48.0186 60.3336C49.3549 60.5207 50.6924 60.7067 52.0287 60.8938C52.4973 60.9589 52.9876 61.0228 53.4334 60.8664C54.0822 60.6394 54.4938 60.0016 54.7515 59.3638C54.9613 58.8458 55.1027 58.2719 54.9705 57.73C54.7378 56.7761 53.7675 56.2228 52.8873 55.7892C52.1233 55.4139 51.3537 55.0419 50.543 54.7863C48.4632 54.1303 46.2295 54.2649 44.0517 54.3676C39.7543 54.5696 35.4499 54.6186 31.1479 54.5171C29.0065 54.4657 26.8652 54.3779 24.7262 54.2512C23.0968 54.1554 21.5233 53.7469 19.8837 54.0253C18.1027 54.3277 16.4072 55.1982 15.1803 56.5366Z" fill="#00B76D"/>
<path d="M18.936 54.7665C18.9325 54.7676 18.9302 54.7688 18.9268 54.7711C18.9417 54.7654 18.9588 54.7585 18.9668 54.7539C18.9577 54.7585 18.9474 54.7619 18.936 54.7665Z" fill="#221025"/>
<path d="M28.9505 36.9951C27.6119 36.678 26.1798 36.549 24.8081 36.5057C23.4319 36.4623 22.0431 36.4897 20.6817 36.7076C20.1195 36.7977 20.2712 37.6763 20.8128 37.6797C21.4992 37.6843 22.1856 37.682 22.8697 37.6934C22.8139 37.8223 22.766 37.9581 22.7329 38.0893C22.6326 38.4898 22.6622 38.9519 22.7899 39.3432C22.9324 39.7802 23.1867 40.1453 23.555 40.4203C23.8503 40.6416 24.2311 40.7431 24.596 40.7591C25.4124 40.7968 26.2345 40.2605 26.3713 39.4231C26.45 38.9405 26.377 38.4316 26.2015 37.9763C26.1969 37.9649 26.1912 37.9535 26.1866 37.9421C26.9882 38.0505 27.7852 38.1794 28.5891 38.3027C28.9505 38.3586 29.3165 38.2114 29.4214 37.8292C29.5184 37.4846 29.3074 37.0796 28.9505 36.9951ZM24.7306 38.3506C24.7294 38.3506 24.7294 38.3506 24.7283 38.3517C24.7397 38.3415 24.7408 38.3415 24.7306 38.3506ZM24.7135 38.3654C24.7192 38.3597 24.718 38.362 24.7214 38.3574C24.7226 38.3574 24.7226 38.3574 24.7237 38.3563C24.7192 38.3597 24.7146 38.3643 24.71 38.3677C24.7112 38.3677 24.7123 38.3666 24.7135 38.3654ZM23.9769 38.0596C23.978 38.0642 23.978 38.0688 23.978 38.0745C23.978 38.0699 23.9769 38.0653 23.9757 38.0619C23.9769 38.0608 23.9769 38.0608 23.9769 38.0596ZM24.5356 39.4174C24.482 39.406 24.4295 39.3923 24.3782 39.3751C24.3418 39.3569 24.3053 39.3398 24.2699 39.317C24.2654 39.3124 24.2619 39.309 24.2574 39.3044C24.2642 39.293 24.2745 39.285 24.2802 39.2725C24.3509 39.1367 24.4044 39.0055 24.4478 38.8583C24.4569 38.8263 24.4672 38.7933 24.4786 38.7613C24.4843 38.7453 24.506 38.6986 24.5037 38.7008C24.5162 38.6769 24.5287 38.6529 24.5401 38.629C24.5641 38.5788 24.5869 38.5286 24.6154 38.4818C24.6166 38.4784 24.6291 38.459 24.6416 38.4384C24.6462 38.4339 24.6496 38.4304 24.6553 38.4236C24.6644 38.4133 24.6758 38.4031 24.685 38.3939C24.7135 38.3825 24.7477 38.3586 24.7785 38.338C24.7978 38.3312 24.8184 38.3266 24.8389 38.3221C24.8503 38.3221 24.8628 38.3221 24.8742 38.3221C24.8822 38.3357 24.8902 38.3494 24.8982 38.3631C24.9529 38.5217 24.9905 38.686 25.0168 38.8503C25.027 38.9507 25.0293 39.0511 25.0236 39.1515C25.0168 39.1846 25.0076 39.2188 24.9974 39.2508C24.9905 39.2633 24.9837 39.2759 24.9757 39.2873C24.9609 39.3033 24.9461 39.3181 24.9301 39.3318C24.9016 39.35 24.872 39.3672 24.8412 39.3831C24.8001 39.3968 24.7579 39.4071 24.7157 39.4162C24.6564 39.4208 24.596 39.4208 24.5356 39.4174Z" fill="#221025"/>
<path d="M40.6514 38.0387C41.2272 38.0695 41.8053 38.0855 42.3834 38.0992C42.3446 38.1448 42.3081 38.1916 42.2751 38.2395C42.079 38.5213 41.9547 38.8898 41.9764 39.2344C42.0277 40.0365 42.5613 40.688 43.3127 40.9504C43.9945 41.1889 44.8132 40.947 45.2773 40.3993C45.7755 39.8106 45.9523 38.9663 45.5235 38.2828C45.5076 38.2566 45.4871 38.2361 45.47 38.211C45.5635 38.2167 45.657 38.219 45.7505 38.2247C46.2921 38.2623 47.0047 38.4266 47.4836 38.098C47.7492 37.9166 47.8245 37.5526 47.5851 37.3096C47.1449 36.8624 46.3958 36.9046 45.8143 36.8703C45.2339 36.8361 44.6536 36.8133 44.0732 36.8019C42.8897 36.7791 41.6833 36.8316 40.5134 37.0118C39.9057 37.1065 40.095 38.009 40.6514 38.0387ZM44.3377 39.4592C44.3332 39.4637 44.3286 39.4683 44.3252 39.4729C44.3161 39.4865 44.3058 39.5002 44.2967 39.5139C44.3069 39.4968 44.3115 39.49 44.3195 39.4786C44.2921 39.5082 44.2647 39.5379 44.2362 39.5653C44.2328 39.5698 44.2283 39.5744 44.2214 39.5801C44.2066 39.5938 44.1838 39.6086 44.1701 39.6246C44.177 39.6155 44.1804 39.6143 44.1861 39.6075C44.1473 39.6326 44.1085 39.6543 44.0675 39.6748C44.0515 39.6805 44.0356 39.6862 44.0196 39.6908C44.0116 39.6931 44.0025 39.6942 43.9945 39.6965C43.9865 39.6999 43.966 39.7056 43.9409 39.7079C43.9227 39.7113 43.9045 39.7147 43.8874 39.7193C43.9022 39.7147 43.9124 39.7125 43.9238 39.709C43.9022 39.7102 43.8805 39.7102 43.8589 39.709C43.8429 39.709 43.8269 39.7079 43.8109 39.7068C43.7608 39.6965 43.7129 39.6828 43.6639 39.668C43.6479 39.6634 43.6319 39.6566 43.616 39.6508C43.5806 39.6315 43.5441 39.6132 43.5088 39.5927C43.4985 39.587 43.4848 39.579 43.4723 39.571C43.4643 39.5641 43.4563 39.5573 43.4484 39.5504C43.4142 39.5208 43.3834 39.4877 43.3526 39.4546C43.3571 39.4637 43.3594 39.4672 43.3651 39.4786C43.3594 39.4672 43.3492 39.4546 43.34 39.442C43.3218 39.4215 43.3161 39.409 43.3161 39.4021C43.2979 39.369 43.2807 39.3337 43.2614 39.3006C43.2545 39.2777 43.2465 39.2549 43.2397 39.231C43.2351 39.2116 43.2306 39.1922 43.2272 39.1728C43.2237 39.1146 43.2237 39.0564 43.2215 38.9971C43.2192 38.9423 43.2226 38.8875 43.226 38.8328C43.2317 38.8065 43.2363 38.7803 43.2431 38.7541C43.2511 38.7221 43.299 38.632 43.2944 38.6012C43.2944 38.6012 43.2944 38.6 43.2956 38.6C43.3959 38.6822 43.5202 38.7335 43.6502 38.7187C43.7368 38.7096 43.8281 38.705 43.9159 38.7061C43.8771 38.7004 43.8999 38.6924 43.9352 38.7004C43.9409 38.7016 43.9466 38.7039 43.9523 38.705C43.974 38.7061 43.9957 38.7096 44.0162 38.7096C43.9911 38.7096 43.9786 38.7084 43.9626 38.7084C44.0139 38.7221 44.0641 38.7347 44.1143 38.7529C44.1336 38.7598 44.153 38.7666 44.1724 38.7734C44.1998 38.7906 44.2271 38.81 44.2397 38.8179C44.2465 38.8225 44.2545 38.8271 44.2613 38.8328C44.2955 38.8682 44.3332 38.9024 44.3685 38.9366C44.3719 38.9423 44.3753 38.9492 44.3788 38.9537C44.3822 38.9594 44.3856 38.9651 44.3879 38.9708C44.3856 38.9537 44.4016 38.9674 44.413 39.0051C44.4153 39.0131 44.4175 39.021 44.421 39.029C44.4267 39.0404 44.4324 39.0518 44.4392 39.0621C44.4312 39.0507 44.429 39.0461 44.4233 39.0359C44.4278 39.0507 44.4324 39.0644 44.4369 39.0792C44.4392 39.0884 44.4415 39.0963 44.4426 39.1055C44.4426 39.1271 44.4415 39.1477 44.4415 39.1694C44.4392 39.1933 44.4347 39.247 44.4244 39.2823C44.4187 39.304 44.4107 39.3245 44.4038 39.3462C44.4027 39.3496 44.4027 39.3496 44.4016 39.3531C44.3867 39.3793 44.3731 39.4033 44.3571 39.4261C44.3674 39.4158 44.3583 39.4375 44.3377 39.4592ZM44.1006 38.7426C44.112 38.7415 44.1325 38.7506 44.1541 38.7632C44.1268 38.7541 44.0983 38.7438 44.1006 38.7426Z" fill="#221025"/>
<path d="M43.3164 39.404C43.3198 39.4107 43.3231 39.4185 43.3264 39.423C43.3298 39.4286 43.3343 39.4364 43.3399 39.442C43.3443 39.4465 43.3488 39.4509 43.3533 39.4554C43.3298 39.4084 43.3164 39.395 43.3164 39.404Z" fill="#221025"/>
<path d="M44.186 39.6057C44.1894 39.6035 44.1928 39.6023 44.1961 39.6001C44.2073 39.5934 44.214 39.5856 44.2207 39.5789C44.2263 39.5744 44.2296 39.5688 44.2352 39.5643C44.2464 39.5476 44.233 39.552 44.186 39.6057Z" fill="#221025"/>
<path d="M44.4179 39.0282C44.408 39.0094 44.3969 38.9895 44.387 38.9707C44.3881 38.9795 44.3992 39.0016 44.4201 39.0348C44.4201 39.0326 44.419 39.0304 44.4179 39.0282Z" fill="#221025"/>
<path d="M43.9252 39.71C43.9263 39.71 43.9274 39.71 43.9285 39.71C43.933 39.71 43.9375 39.7089 43.9409 39.7089C43.9588 39.7055 43.9756 39.701 43.9935 39.6976C44.0047 39.692 43.989 39.692 43.9252 39.71Z" fill="#221025"/>
<path d="M43.9506 38.7062C43.946 38.7062 43.9415 38.7051 43.937 38.7051C43.929 38.7051 43.9211 38.7062 43.9131 38.7062C43.9234 38.7073 43.9404 38.7085 43.9597 38.7085C43.9574 38.7073 43.954 38.7062 43.9506 38.7062Z" fill="#221025"/>
<path d="M44.3549 39.4268C44.3493 39.4323 44.3372 39.4489 44.3195 39.4765C44.3217 39.4743 44.3228 39.4732 44.325 39.471C44.3284 39.4666 44.3317 39.4622 44.335 39.4566C44.3405 39.4489 44.3482 39.4367 44.3549 39.4268Z" fill="#221025"/>
<path d="M69.0474 44.0905C67.9448 43.0066 66.8149 41.9513 65.6553 40.929C65.0852 40.427 64.5105 39.9284 63.9199 39.4503C63.384 39.0168 62.8332 38.4885 62.2369 38.1257C62.8344 36.9505 63.4968 35.8244 64.2311 34.7165C64.2961 34.6173 64.3121 34.5169 64.2961 34.4245C64.5675 34.2738 64.7431 33.984 64.6382 33.6383C64.2209 32.2544 63.726 30.8955 63.1605 29.5663C63.238 29.5606 63.319 29.5366 63.4033 29.4842C63.9267 29.1544 64.3873 28.6421 64.8218 28.2052C65.2402 27.7853 65.6427 27.3506 66.0293 26.9022C66.8308 25.9712 67.564 24.9808 68.2242 23.9437C68.4203 23.6345 68.1683 23.1405 67.784 23.1759C66.4865 23.2922 65.1946 23.4349 63.9027 23.606C63.2916 23.687 62.6804 23.7714 62.0693 23.8582C61.7363 23.9061 61.4079 23.9597 61.0784 24.0259C60.8116 24.0795 60.5653 24.1103 60.3418 24.2586C60.107 23.9015 59.8675 23.5478 59.6167 23.201C59.4673 22.9945 59.3157 22.7891 59.1617 22.5849C59.0728 22.4673 58.9827 22.351 58.8926 22.2346C58.8778 22.2152 58.8619 22.1947 58.847 22.1753C59.0523 21.8855 58.8493 21.4314 58.5004 21.3001C58.4183 21.2693 58.3408 21.2545 58.2701 21.2522C58.0637 20.9088 57.7627 20.5962 57.5392 20.311C57.4662 20.2174 57.391 20.1261 57.318 20.0326C57.3465 20.0052 57.375 19.9755 57.4001 19.9401C58.3579 18.6281 59.1138 17.098 59.855 15.6559C60.603 14.1989 61.2848 12.71 61.9142 11.1982C62.0704 10.8228 61.6234 10.4703 61.2825 10.5661C58.245 11.415 55.2474 12.6096 52.5998 14.3415C51.9328 13.5896 51.2566 12.8457 50.5565 12.1292C50.0993 11.6614 49.6033 11.213 49.0435 10.8696C48.5657 10.5775 47.8337 10.1828 47.2773 10.4144C47.1142 10.1771 46.8531 10.0139 46.5076 9.97513C45.7562 9.8907 44.9706 9.94431 44.2146 9.93518C43.5852 9.92834 42.9547 9.92036 42.3253 9.91351C41.7518 8.57632 41.4964 7.11362 41.1999 5.69771C41.0357 4.91388 40.8715 4.12891 40.7073 3.34508C40.5386 2.53843 40.3197 1.72266 40.2102 0.904603C40.1623 0.547487 39.5911 0.403721 39.3733 0.683253C38.3539 1.98507 37.9275 3.73072 37.5216 5.30066C37.314 6.10617 37.1134 6.91397 36.8602 7.70692C36.6276 8.43485 36.3335 9.13196 36.0541 9.84049C35.6995 9.83592 35.3449 9.8325 34.9903 9.82794C33.2366 9.8074 31.4841 9.82794 29.7316 9.84163C29.499 9.84277 29.3599 9.98196 29.3086 10.1497C28.9848 10.1965 28.6655 10.3425 28.3565 10.4886C27.7146 10.792 27.0715 11.0955 26.4295 11.399C26.3942 11.4013 26.3589 11.407 26.3201 11.4196C26.1867 11.4618 25.6006 10.6483 25.5048 10.5376C25.2505 10.2455 24.9951 9.95458 24.7409 9.66249C24.2038 9.04752 23.6702 8.43142 23.1355 7.81417C22.0785 6.59449 20.9485 5.47067 19.8129 4.32744C19.5175 4.02965 18.9748 4.24871 18.9794 4.67314C18.9999 6.33778 19.2302 8.00128 19.5894 9.62485C19.7673 10.4292 19.9827 11.2256 20.2336 12.0117C20.4388 12.6518 20.6384 13.3683 20.9474 13.9878C20.8014 14.0574 20.6544 14.1259 20.5084 14.1955C19.7581 14.5503 19.009 14.9086 18.261 15.2702C17.9007 15.4448 17.5393 15.6194 17.1789 15.794C17.0045 15.8784 16.8244 15.9548 16.6488 16.0415C16.5404 16.0484 16.4356 16.0883 16.3489 16.1682C16.3158 16.199 16.2896 16.2366 16.2622 16.2743C16.2121 16.3108 16.1608 16.3439 16.1151 16.3861C15.9635 16.523 15.9589 16.6839 16.0273 16.8162C16.0251 16.8231 16.0228 16.8299 16.0216 16.8379C15.9966 16.9235 15.9692 17.0079 15.943 17.0935C15.9361 17.114 15.9293 17.1346 15.9236 17.1562C15.8141 17.2064 15.7161 17.2863 15.6385 17.389C15.0365 18.1785 14.4265 18.9635 13.821 19.7519C13.4083 19.4153 12.8507 19.1711 12.4243 18.9236C11.7606 18.5391 11.1039 18.1432 10.4426 17.7541C9.14044 16.9874 7.89645 16.1397 6.63537 15.309C6.03562 14.9143 5.37771 15.6764 5.69241 16.2526C7.23513 19.0685 8.70373 21.9231 10.3149 24.7025C10.023 25.1965 9.75046 25.7008 9.50189 26.2188C9.27271 26.698 9.06291 27.1886 8.88048 27.6883C8.7733 27.9827 8.63647 28.277 8.64787 28.5589C8.12907 29.0894 8.14732 30.0067 8.1667 30.7335C8.20205 32.0045 8.26932 33.2732 8.36624 34.5408C7.78929 34.6093 7.20548 35.1193 6.74939 35.4194C6.08009 35.8586 5.40852 36.2922 4.74263 36.736C3.39261 37.6362 2.00267 38.517 0.702824 39.488C0.391545 39.7196 0.356204 40.3106 0.822552 40.4053C2.26493 40.6962 3.70161 40.9313 5.17135 41.034C5.91021 41.0853 6.65021 41.1127 7.39021 41.1298C7.92839 41.1423 8.60112 41.2439 9.16097 41.1298C9.3206 42.1144 9.49504 43.0968 9.69116 44.0734C9.63871 44.2263 9.67179 44.4134 9.78695 44.5253C10.0207 45.6559 10.2772 46.782 10.5612 47.9013C10.3856 47.9561 10.2191 48.0588 10.0572 48.1535C9.67063 48.3794 9.30692 48.6361 8.93749 48.8882C8.19863 49.3914 7.45635 49.8888 6.7095 50.3817C5.96266 50.8746 5.22493 51.3812 4.47809 51.8752C3.74835 52.359 2.94792 52.7937 2.28546 53.3687C1.91831 53.6871 2.23985 54.2279 2.65261 54.2564C3.55224 54.3191 4.39943 54.245 5.29108 54.1252C6.21922 54.0008 7.13936 53.9426 8.07548 53.9449C8.96599 53.9461 9.85877 53.9734 10.7481 53.9152C11.1689 53.8879 11.5885 53.8411 12.0035 53.7715C12.097 53.7555 12.1917 53.7407 12.284 53.7224C12.4379 54.1777 12.5907 54.6329 12.7538 55.0847C12.9419 55.6073 13.0879 56.4904 13.6842 56.7003C13.8051 56.7425 13.9293 56.7516 14.0468 56.7322C13.87 57.0118 13.7309 57.3244 13.6454 57.6758C13.4402 58.5121 13.5941 59.3849 14.1654 60.0421C14.6545 60.6046 15.3672 60.8556 16.0889 60.9321C17.7616 61.1089 19.4833 60.4141 21.0922 60.0604C23.0887 59.62 25.1092 59.2857 27.1433 59.0666C31.174 58.633 35.2445 58.5965 39.2786 58.989C41.2854 59.1841 43.2797 59.4899 45.2534 59.8995C47.2408 60.3114 49.1712 60.8807 51.1186 61.4409C52.1859 61.7478 53.2999 61.7684 54.2326 61.0861C55.0091 60.5168 55.4994 59.6531 55.6157 58.6992C55.6978 58.0192 55.5518 57.3712 55.2508 56.811C55.3785 56.7984 55.5005 56.7482 55.594 56.6398C55.9452 56.2302 56.0786 55.6518 56.1938 55.0916C56.6635 55.1395 57.1492 55.1292 57.6076 55.1497C58.2906 55.1805 58.9724 55.2159 59.6543 55.2536C61.018 55.33 62.3817 55.4213 63.7431 55.5308C64.344 55.5787 64.4022 54.8006 64.019 54.5131C61.8982 52.9203 59.8128 51.2785 57.7228 49.6458C57.92 49.0286 58.1207 48.4113 58.3317 47.7975C58.6293 46.9338 58.9371 46.0735 59.2529 45.2167C62.4045 45.7084 65.6382 45.6559 68.7794 45.1185C69.2424 45.0375 69.353 44.3906 69.0474 44.0905ZM61.1765 24.7618C61.4638 24.7458 61.75 24.7253 62.0362 24.6967C62.6816 24.6329 63.3269 24.5724 63.9734 24.5165C64.9016 24.4355 65.8308 24.359 66.7601 24.2826C66.2869 24.9489 65.7841 25.5913 65.2425 26.2051C64.8651 26.6341 64.4729 27.0482 64.0658 27.4498C63.6496 27.8594 63.1479 28.2223 62.7694 28.6638C62.7682 28.665 62.7671 28.6672 62.7659 28.6684C62.5778 28.2599 62.3886 27.8515 62.1845 27.4498C61.7215 26.5371 61.213 25.646 60.6702 24.7778C60.8333 24.7869 60.9963 24.7709 61.1765 24.7618ZM57.7273 23.8399C57.8459 23.6037 58.0067 23.3424 58.1504 23.072C58.4001 23.436 58.6817 23.7886 58.9086 24.1457C59.2906 24.7481 59.6634 25.3562 60.0146 25.9769C61.3031 28.2508 62.3327 30.673 63.0487 33.1865C61.3373 33.3086 59.6269 33.4364 57.9177 33.5779C57.8345 33.5516 57.7513 33.5357 57.668 33.5379C57.6772 33.2812 57.6817 33.0245 57.6772 32.7678C57.6441 30.4095 57.0193 28.0991 56.1276 25.9004C56.2975 25.9404 56.4856 25.9004 56.6418 25.7361C57.139 25.2204 57.4092 24.4708 57.7273 23.8399ZM54.7696 41.4983C53.9281 45.187 53.0844 48.8768 52.2417 52.5655C52.1026 53.1748 51.9635 53.7829 51.8244 54.3922C50.7891 53.97 49.7014 53.7053 48.5874 53.6163C49.0081 50.6544 49.4288 47.6925 49.8496 44.7295C50.3102 41.4858 50.8906 38.2284 51.0559 34.9527C51.2042 32.0091 50.9134 29.0415 49.7435 26.3135C48.7322 23.954 47.0332 21.8432 44.7277 20.6532C42.0619 19.2773 38.9104 19.0514 35.9606 18.9863C32.8877 18.9179 29.7419 19.2236 26.8389 20.2801C24.4011 21.1667 22.1116 22.5734 20.3693 24.5119C18.4674 26.6272 17.4309 29.2297 17.0661 32.0342C16.6693 35.0862 16.9076 38.2261 17.1197 41.2838C17.3466 44.5469 17.7491 47.7986 18.3146 51.0207C18.4572 51.8307 18.6293 52.634 18.8106 53.4372C18.8334 53.5387 18.8756 53.6175 18.9292 53.6779C18.5484 53.8217 18.1755 53.9917 17.8255 54.2016C17.8221 54.2039 17.8198 54.2062 17.8163 54.2073C15.7297 47.4894 14.4527 40.5491 14.2862 33.506C14.2486 31.9144 14.0115 30.0307 14.9544 28.6456C15.3911 28.0032 15.984 27.4784 16.5017 26.9033C17.0102 26.3386 17.4823 25.7419 17.9441 25.1383C19.8288 22.6704 21.5175 20.036 24.327 18.5242C27.2368 16.9577 30.6837 16.4945 33.9242 16.1408C37.5968 15.7403 41.3037 15.6548 44.99 15.8886C46.5817 15.989 48.2134 16.1271 49.4573 17.2372C50.6569 18.3074 51.5166 19.7747 52.3284 21.1438C54.0741 24.0898 55.6111 27.3746 56.1447 30.7837C56.7069 34.3971 55.5666 38.0059 54.7696 41.4983ZM19.8539 53.1474C19.3762 50.0554 18.9851 46.9555 18.7547 43.8338C18.7183 43.3318 18.6818 42.8298 18.6464 42.3278C19.1983 43.4231 20.0204 44.3416 21.1971 44.8618C24.3213 46.2447 27.9905 44.9508 30.3108 42.6507C30.6495 42.3152 30.963 41.9513 31.2527 41.5679C31.215 41.7984 31.1728 42.0289 31.1375 42.2593C30.9231 43.6559 30.6688 45.1128 30.7475 46.531C30.8159 47.7747 31.2173 49.008 32.2344 49.7896C33.1488 50.4913 34.4384 50.7366 35.4464 50.0748C35.9903 49.7177 36.3551 49.1997 36.6037 48.6076C36.8306 48.0668 37.1339 47.2738 36.907 46.6942C36.7793 46.3679 36.3893 46.2161 36.1145 46.4843C35.3859 47.1951 35.5809 48.8358 34.3267 49.0639C33.2423 49.2613 32.4191 48.1295 32.1876 47.219C31.8387 45.8442 32.1261 44.3096 32.2127 42.9165C32.2617 42.1293 32.321 41.3432 32.3906 40.5582C32.4248 40.1657 32.4624 39.7744 32.5012 39.3819C32.5035 39.3625 32.5058 39.3431 32.508 39.3248C32.6278 39.035 32.7463 38.7441 32.8752 38.4554C33.1295 37.8872 33.4954 37.1855 34.199 37.1479C34.9492 37.1068 35.5684 37.7172 35.8945 38.3311C36.7759 39.9934 36.362 42.0608 37.4862 43.6501C38.509 45.0957 40.2672 45.6354 41.9638 45.7232C43.9877 45.8294 46.1404 45.3696 47.7698 44.1168C48.0378 43.9103 48.2898 43.6821 48.5247 43.4356C48.1199 46.2618 47.7162 49.0879 47.3115 51.914C47.2248 52.5187 47.1382 53.1234 47.0515 53.7281C45.3241 53.7156 43.5875 53.8605 41.8601 53.9118C40.054 53.9654 38.2467 53.9928 36.4395 53.994C32.8524 53.9962 29.271 53.8719 25.6884 53.7064C24.6861 53.6597 23.6839 53.606 22.6828 53.5433C21.7569 53.4851 20.7706 53.3311 19.8368 53.4087C19.8596 53.3277 19.8687 53.2421 19.8539 53.1474ZM30.7122 39.9272C29.2265 42.5297 26.2939 44.4226 23.2381 44.1419C21.4833 43.981 20.1036 42.945 19.399 41.3386C18.7696 39.9033 18.4993 38.2866 18.3819 36.6938C18.375 36.0571 18.3762 35.4205 18.3933 34.785C18.3979 34.6207 18.4035 34.4553 18.4104 34.2898C20.3522 34.3549 22.3088 34.2681 24.2494 34.2556C26.3223 34.2419 28.3953 34.2488 30.4682 34.2761C34.6425 34.3309 38.8157 34.469 42.9843 34.6914C44.1063 34.7508 45.2294 34.8032 46.3491 34.8979C46.9067 34.9447 47.4631 35.0086 48.0138 35.1124C48.5452 35.2129 49.0127 35.4114 49.5383 35.3053C49.4733 36.388 49.3581 37.4674 49.219 38.5456C49.007 38.6197 48.8314 38.8 48.8291 39.067C48.8211 40.565 48.0549 42.1042 46.8668 43.0135C45.5202 44.0426 43.754 44.3872 42.0927 44.337C40.6446 44.2925 39.0609 43.8624 38.3551 42.4773C37.5706 40.9358 37.8215 39.0727 36.9594 37.5427C36.2023 36.1975 34.4122 35.2562 32.9732 36.1667C31.6734 36.9847 31.4248 38.6768 30.7122 39.9272ZM49.5851 34.1575C49.3046 33.9738 48.9773 33.9156 48.6136 33.8403C48.1051 33.7353 47.5897 33.6635 47.0743 33.6053C46.0595 33.4912 45.0379 33.4467 44.0185 33.3919C41.9205 33.279 39.8202 33.1865 37.72 33.1147C33.5194 32.972 29.3154 32.915 25.1126 32.9424C22.9154 32.9561 20.684 32.9196 18.4902 33.1055C18.5096 32.8967 18.5324 32.6879 18.5575 32.4803C26.8138 32.2167 35.0587 32.2635 43.307 32.7473C45.405 32.8705 47.4984 33.0405 49.5942 33.2014C49.5976 33.5197 49.593 33.838 49.5851 34.1575ZM25.2335 31.3268C23.0465 31.3918 20.8619 31.4956 18.6795 31.644C18.9543 30.0295 19.456 28.4653 20.3453 27.0597C21.6212 25.0413 23.5425 23.501 25.6599 22.4365C28.1421 21.1883 30.9391 20.6589 33.695 20.5277C35.1739 20.457 36.6561 20.4969 38.1327 20.6053C39.5021 20.7057 40.8704 20.8757 42.193 21.2614C44.6194 21.9676 46.527 23.5216 47.7789 25.7099C48.8701 27.6164 49.3809 29.7557 49.5383 31.9281C41.4724 31.1922 33.3221 31.0838 25.2335 31.3268ZM10.8382 43.7186C10.0595 39.8417 9.57713 35.9088 9.40268 31.9589C9.3776 31.3861 9.35251 30.8134 9.34567 30.2406C9.34225 29.9599 9.29664 29.5024 9.576 29.3427C9.75957 29.2366 10.1484 29.297 10.3479 29.2959C10.6318 29.2948 10.9157 29.2936 11.1997 29.2925C11.8279 29.2902 12.4459 29.2628 13.0731 29.216C13.2087 29.2058 13.3079 29.1521 13.3832 29.0814C13.2464 29.4796 13.1597 29.8949 13.1107 30.3239C13.0092 31.2116 13.0445 32.1186 13.0582 33.0097C13.073 33.9418 13.1073 34.8751 13.1586 35.8061C13.2623 37.6682 13.4402 39.5268 13.6956 41.374C13.7754 41.9547 13.8643 42.5366 13.9578 43.1173C13.9282 43.1185 13.9009 43.115 13.8701 43.1207C13.5474 43.1721 13.2338 43.2965 12.9168 43.3752C12.5862 43.4573 12.2521 43.5258 11.9146 43.5817C11.6113 43.6319 11.3068 43.6741 11.0001 43.706C10.9477 43.7106 10.893 43.714 10.8382 43.7186ZM60.5163 11.8622C60.0157 12.9906 59.481 14.1031 58.9098 15.1984C58.5346 15.916 58.1458 16.6257 57.741 17.3274C57.383 17.9481 56.9862 18.5493 56.635 19.1746C56.4879 18.9897 56.342 18.8038 56.1938 18.6189C55.1812 17.365 54.1493 16.1168 53.0878 14.896C55.5016 13.7197 57.9508 12.6518 60.5163 11.8622ZM47.4357 11.3237C47.6307 11.4024 47.8462 11.439 48.0469 11.5291C48.3263 11.6557 48.5931 11.828 48.8348 12.0163C49.381 12.4396 49.845 12.969 50.3011 13.4847C51.3855 14.7112 52.4481 15.9582 53.496 17.2167C54.5461 18.4775 55.5735 19.7565 56.5757 21.0549C56.7627 21.2967 57.1356 21.6219 57.2257 21.9197C57.2975 22.1547 56.8961 22.659 56.7719 22.8883C56.4264 23.5273 55.9292 24.2198 55.7183 24.9318C55.3317 24.0635 54.911 23.2158 54.4732 22.3909C53.6465 20.8312 52.7229 19.2989 51.6545 17.891C50.6648 16.5869 49.4802 15.5019 47.8656 15.066C47.4266 14.9474 46.9751 14.8606 46.5179 14.7968C46.6205 14.224 46.6832 13.6467 46.836 13.0808C46.9956 12.4932 47.3308 11.9227 47.4357 11.3237ZM38.4303 5.92362C38.6447 5.1455 38.8579 4.36737 39.1236 3.60407C39.2547 3.22642 39.4063 2.86817 39.5671 2.51562C39.6481 2.90582 39.7233 3.29716 39.8077 3.68166C39.9867 4.49173 40.1657 5.30067 40.3436 6.11074C40.6241 7.39202 40.8795 8.67787 41.3459 9.9021C39.8944 9.88499 38.4428 9.86787 36.9914 9.85189C37.7234 8.67444 38.0689 7.23457 38.4303 5.92362ZM40.5922 11.0419C42.3743 11.075 44.1554 11.1092 45.9375 11.1423C46.0185 11.1435 46.2237 11.1993 46.2773 11.132C46.2499 11.2495 46.1564 11.4207 46.1313 11.4812C45.9672 11.8759 45.8109 12.2707 45.6923 12.6826C45.5042 13.3386 45.3708 14.0061 45.3902 14.6804C44.4051 14.6085 43.4096 14.6005 42.4519 14.5777C40.5067 14.5298 38.5592 14.5708 36.6185 14.6998C35.3586 14.7831 34.1009 14.9074 32.8478 15.0637C32.7566 14.4568 32.4533 13.9479 32.1614 13.3991C31.8296 12.7761 31.4807 12.1623 31.1147 11.5576C30.9653 11.31 30.8137 11.0362 30.6301 10.792C33.9504 10.9107 37.2696 10.9803 40.5922 11.0419ZM21.1344 11.763C20.9006 10.9997 20.7011 10.2273 20.5369 9.44687C20.2815 8.23632 20.1264 7.01322 20.0284 5.78328C21.1173 6.77704 22.083 7.95223 23.034 9.04868C23.6292 9.73439 24.213 10.4315 24.8013 11.1229C24.9689 11.3203 25.1799 11.6204 25.4204 11.8759C24.2084 12.4487 22.9963 13.0214 21.7832 13.5942C21.5939 12.9781 21.3214 12.3745 21.1344 11.763ZM17.7377 16.5846C18.1048 16.4203 18.4708 16.256 18.838 16.0917C19.5711 15.7631 20.3031 15.4323 21.0329 15.0968C22.5699 14.3917 24.108 13.6855 25.6451 12.9804C26.401 12.6335 27.157 12.2867 27.9118 11.9398C28.2767 11.7721 28.6404 11.601 29.0064 11.4378C29.3462 11.2861 29.4865 11.1891 29.7168 11.5143C30.1546 12.1304 30.5069 12.8332 30.865 13.4984C31.1648 14.0563 31.4032 14.6918 31.7806 15.2075C31.4978 15.2474 31.2139 15.2862 30.9311 15.3296C29.2824 15.584 27.6382 15.9149 26.0601 16.4625C24.4912 17.0079 23.0134 17.7644 21.7216 18.814C21.2495 19.1974 20.8117 19.6173 20.3978 20.0588C20.4662 19.8283 20.4092 19.5648 20.1447 19.4062C18.9782 18.7045 17.8141 17.9994 16.6408 17.3091C16.6624 17.2863 16.683 17.2623 16.7046 17.2395C16.7901 17.1505 16.8688 17.0638 16.9441 16.9634C16.9475 16.9589 16.9509 16.9532 16.9543 16.9486C17.2234 16.8413 17.4868 16.6964 17.7377 16.5846ZM7.92725 17.834C8.53156 18.2071 9.14501 18.5653 9.76072 18.9133C10.4084 19.2795 11.0697 19.6093 11.7447 19.9219C12.0776 20.0759 12.4106 20.2277 12.7527 20.3611C12.9032 20.4193 13.056 20.4878 13.211 20.546C12.5349 21.4371 11.869 22.335 11.2373 23.2557C11.1598 23.3687 11.0857 23.4851 11.0093 23.5992C9.92947 21.7063 8.87819 19.7941 7.92725 17.834ZM10.3354 26.5348C10.8656 25.5467 11.4893 24.6089 12.1449 23.6996C13.4459 21.8946 14.8735 20.1763 16.2657 18.4387C17.3568 19.1073 18.4549 19.7644 19.5506 20.4239C19.7148 20.522 19.8744 20.5323 20.0124 20.4844C19.4833 21.0857 18.9896 21.72 18.5085 22.3589C17.5438 23.6391 16.6317 24.9626 15.5473 26.1469C15 26.7448 14.4117 27.305 13.9442 27.9713C13.7766 28.2097 13.6397 28.4607 13.5257 28.7197C13.5143 28.5041 13.365 28.293 13.0719 28.2656C12.3889 28.2029 11.7139 28.1675 11.0286 28.1538C10.5714 28.1447 10.0617 28.0797 9.58969 28.1378C9.60109 28.107 9.6125 28.0762 9.6239 28.0454C9.83028 27.5286 10.072 27.0254 10.3354 26.5348ZM7.38793 40.1052C6.70038 40.0984 6.01396 40.0824 5.32755 40.0459C4.28767 39.9911 3.22956 39.9056 2.19994 39.7048C3.225 39.0156 4.22726 38.2843 5.23179 37.5757C5.88741 37.1137 6.53733 36.6424 7.18953 36.1758C7.48827 35.9624 7.78244 35.7445 8.07092 35.5175C8.19976 35.4171 8.32063 35.3304 8.42439 35.2345C8.51105 36.2374 8.61139 37.2392 8.73681 38.2386C8.81435 38.8605 8.89986 39.4811 8.99222 40.1007C8.47114 40.0299 7.87708 40.1098 7.38793 40.1052ZM10.5862 52.8724C9.7231 52.9283 8.85653 52.9101 7.99225 52.9192C7.13138 52.9283 6.28307 52.9865 5.43018 53.1074C5.11777 53.1519 4.79166 53.2056 4.46214 53.2478C4.70387 53.0801 4.94329 52.9112 5.18274 52.7526C5.92844 52.2574 6.67414 51.7611 7.40388 51.2431C8.13476 50.724 8.86223 50.2003 9.58513 49.6698C9.93517 49.4131 10.2829 49.1586 10.6113 48.8745C10.6661 48.8266 10.7219 48.7787 10.7755 48.7296C11.129 50.0623 11.5166 51.3869 11.9408 52.7001C11.9191 52.7047 11.8975 52.7093 11.8758 52.7138C11.4505 52.7983 11.0195 52.845 10.5862 52.8724ZM12.3969 50.0919C11.8804 48.3143 11.4311 46.5173 11.0423 44.7067C11.3958 44.6998 11.7458 44.6747 12.0959 44.6291C12.7641 44.5435 13.5029 44.4545 14.1357 44.1944C14.6146 46.9326 15.2497 49.6572 16.1083 52.2883C16.3785 53.1177 16.667 53.9403 16.968 54.7595C16.1072 55.0528 15.244 55.4555 14.5975 56.0659C14.5964 56.0454 14.5998 56.0271 14.5964 56.0066C14.561 55.7738 14.39 55.5799 14.1882 55.5069C14.1574 55.411 14.1141 55.3152 14.081 55.2239C14.0057 55.0185 13.9316 54.8143 13.8575 54.6078C13.6739 54.0944 13.4949 53.5787 13.3216 53.0607C12.9955 52.0783 12.6865 51.088 12.3969 50.0919ZM14.2418 55.6666C14.3284 55.6997 14.284 55.759 14.2418 55.6666V55.6666ZM54.0798 58.9685C53.8791 59.5549 53.3968 60.0547 52.7788 60.187C51.9921 60.3547 51.1038 59.9212 50.3627 59.7021C46.901 58.6741 43.3435 57.9838 39.753 57.6108C32.5594 56.8623 25.3589 57.5195 18.3773 59.3712C17.3796 59.6359 15.2942 60.146 14.8586 58.762C14.6374 58.0614 15.0536 57.2799 15.553 56.811C16.2121 56.1914 17.1277 55.848 17.9452 55.4909C18.1071 55.4201 18.1824 55.2912 18.1949 55.1509C18.2359 55.1269 18.2759 55.103 18.3169 55.079C18.4811 54.9843 18.6487 54.8976 18.8209 54.8189C18.8562 54.8029 18.8916 54.7869 18.9281 54.771C18.9258 54.7721 18.9223 54.7732 18.9201 54.7744C18.9258 54.7732 18.9315 54.7698 18.9372 54.7675C18.9406 54.7664 18.944 54.7641 18.9474 54.763C18.9737 54.7516 18.976 54.7516 18.9691 54.755C18.9737 54.7527 18.9794 54.7504 18.9839 54.7493C19.0797 54.7105 19.1766 54.6751 19.2735 54.642C19.3191 54.6261 19.3625 54.6021 19.4035 54.5758C19.4161 54.5804 19.4263 54.5861 19.4389 54.5907C20.2974 54.8668 21.2735 54.8828 22.1685 54.9615C23.0556 55.0391 23.9427 55.1098 24.8298 55.1748C26.6336 55.3072 28.4375 55.3973 30.2447 55.4578C33.8569 55.5776 37.4725 55.5936 41.0859 55.5034C43.1406 55.4521 45.2386 55.4601 47.2761 55.192C47.3069 55.1885 47.3354 55.1805 47.3651 55.1748C47.4118 55.1805 47.4597 55.1863 47.511 55.184C48.8872 55.1315 50.2498 55.3688 51.5075 55.9165C51.569 56.2302 51.8039 56.5018 52.2167 56.4949C53.5233 56.4721 54.5096 57.7089 54.0798 58.9685ZM53.2189 55.1418C53.8563 52.3019 54.4948 49.4621 55.1322 46.6223C55.4378 46.7786 55.7434 46.9327 56.0535 47.0798C56.2998 47.1962 56.5472 47.3092 56.7958 47.4198C56.8517 47.4449 56.9075 47.4689 56.9634 47.4929C56.5404 48.7 56.1379 49.9151 55.773 51.1439C55.5256 51.9768 55.2907 52.8131 55.0683 53.6528C54.9498 54.0989 54.8357 54.5462 54.7251 54.9946C54.6487 55.3026 54.5587 55.6004 54.5416 55.9051C54.1665 55.5593 53.7149 55.2958 53.2189 55.1418ZM61.9587 54.2609C61.1902 54.1868 60.4217 54.116 59.652 54.0522C58.9702 53.9951 58.2872 53.9415 57.6053 53.8913C57.2439 53.865 56.8733 53.824 56.5039 53.8091C56.6441 53.2797 56.7844 52.7503 56.9349 52.2244C57.1014 51.6436 57.2781 51.0674 57.456 50.4901C58.9246 51.7862 60.4285 53.0378 61.9587 54.2609ZM57.3773 46.3291C57.3408 46.3165 57.3055 46.304 57.2713 46.2903C57.0261 46.1945 56.7832 46.0952 56.5392 45.9948C56.537 45.9937 56.5381 45.9948 56.537 45.9937C56.5096 45.9822 56.4834 45.9708 56.456 45.9594C56.3887 45.9309 56.3215 45.9012 56.2553 45.8727C56.1379 45.8214 56.0216 45.77 55.9053 45.7175C55.732 45.64 55.5609 45.5578 55.3888 45.4768C55.4857 45.0432 55.5837 44.6097 55.6807 44.175C56.1082 42.2719 56.5404 40.3688 56.9508 38.4623C57.1869 37.3635 57.4047 36.2511 57.5392 35.1307C57.5597 35.1307 57.5802 35.1364 57.6019 35.1353C59.4377 34.9744 61.2711 34.7987 63.1046 34.6173C62.262 35.5951 61.6018 36.7474 61.0157 37.8872C60.2951 39.2906 59.6474 40.7339 59.026 42.1829C58.4388 43.5509 57.8915 44.9337 57.3773 46.3291ZM59.7011 44.0198C60.3327 42.3689 61.0043 40.7328 61.7477 39.1263C61.7523 39.1172 61.7569 39.1092 61.7603 39.1C62.2038 39.5268 62.7261 39.9044 63.1799 40.3049C63.7488 40.8069 64.3224 41.3032 64.8856 41.8121C65.7066 42.5537 66.5059 43.3181 67.2972 44.0917C64.7693 44.3918 62.2278 44.3507 59.7011 44.0198Z" fill="#221025"/>
</svg>
